<?xml version="1.0" encoding="utf-8"?>
<!-- Generator: Adobe Illustrator 16.0.0, SVG Export Plug-In . SVG Version: 6.00 Build 0)  -->
<!DOCTYPE svg PUBLIC "-//W3C//DTD SVG 1.1//EN" "http://www.w3.org/Graphics/SVG/1.1/DTD/svg11.dtd">
<svg version="1.1" id="Layer_1" xmlns="http://www.w3.org/2000/svg" xmlns:xlink="http://www.w3.org/1999/xlink" x="0px" y="0px"
	 width="459.231px" height="82.05px" viewBox="28.039 202.451 459.231 82.05" enable-background="new 28.039 202.451 459.231 82.05"
	 xml:space="preserve">
<g display="none">
	<g display="inline">
		<path fill="none" stroke="#FFFDE7" stroke-miterlimit="10" d="M363.885,61.41"/>
	</g>
</g>
<g>
	<g>
		<g>
			<g>
				<g>
					<path fill="#FFF200" d="M483.262,204.278c0.638-0.186-0.411-1.521-0.479-1.827C482.037,203.29,483.503,204.642,483.262,204.278
						z"/>
					<polygon fill="#FFF200" points="475.64,212.729 475.5,212.033 474.825,214.247 					"/>
					<path fill="#FFF200" d="M466.462,217.105c2.061,2.181,3.191-1.912,5.233-1.81l0.551,0.45l-0.275-2.431
						C470.206,214.662,468.201,217.169,466.462,217.105z"/>
					<path fill="#FFF200" d="M459.077,213.625c0.739,0.898-0.688,1.317,1.283-0.151c-0.159-0.066-0.219-0.118-0.319-0.173
						C459.85,213.397,459.574,213.508,459.077,213.625z"/>
					<path fill="#FFF200" d="M460.041,213.301C460.978,212.826,459.039,212.706,460.041,213.301L460.041,213.301z"/>
					<path fill="#FFF200" d="M455.803,215.734l0.9-1.446c-0.518-0.496-1.705-0.168-1.465-0.782
						C454.143,214.546,454.649,215.042,455.803,215.734z"/>
					<path fill="#FFF200" d="M455.365,218.168l0.513-0.665C455.657,217.295,455.445,217.28,455.365,218.168z"/>
					<path fill="#FFF200" d="M456.956,216.1l-1.079,1.403c0.358,0.35,0.729,1.198,0.529-0.565
						C456.609,217.769,456.584,216.901,456.956,216.1z"/>
					<path fill="#FFF200" d="M457.923,216.172c0.958,0.277,2.053,0.249,1.134,1.697
						C461.388,216.484,460.224,214.792,457.923,216.172z"/>
					<path fill="#FFF200" d="M467.203,220.012l1.323,0.317l0.446-1.254C468.747,219.699,466.773,219.225,467.203,220.012z"/>
					<path fill="#FFF200" d="M447.227,217.479c0.13,0.6,1,1.355,1.369,2.046l0.72-1.013
						C448.674,218.308,447.604,218.299,447.227,217.479z"/>
					<path fill="#FFF200" d="M448.596,219.525l-1.085,1.52C448.848,220.676,448.912,220.122,448.596,219.525z"/>
					<polygon fill="#FFF200" points="456.313,221.206 457.853,218.201 455.867,221.421 					"/>
					<polygon fill="#FFF200" points="441.695,219.382 442.055,217.774 441.286,220.28 					"/>
					<path fill="#FFF200" d="M438.091,220.87c0.24-1.312-1.453-1.586-1.037-2.485c-0.926,0.535-1.461,1.781-1.97,2.868
						C435.762,220.528,436.664,220.351,438.091,220.87z"/>
					<path fill="#FFF200" d="M434.174,222.908c0.329-0.395,0.607-1.004,0.91-1.655C434.727,221.646,434.412,222.149,434.174,222.908
						z"/>
					<path fill="#FFF200" d="M444.934,221.676c-0.236-0.307-0.776-1.139-1.729-1.243l1.143,1.416
						C444.525,221.794,444.729,221.736,444.934,221.676z"/>
					<path fill="#FFF200" d="M444.386,221.893l-0.038-0.044c-0.641,0.178-1.088,0.29-1.281,0.333
						C443.233,222.146,443.63,222.059,444.386,221.893z"/>
					<path fill="#FFF200" d="M445.082,221.634c-0.054,0.016-0.094,0.027-0.148,0.042
						C445.046,221.814,445.099,221.857,445.082,221.634z"/>
					<path fill="#FFF200" d="M451.938,221.251c-0.512,1.211-1.96,2.848,0.304,3.557
						C452.445,223.484,451.158,223.079,451.938,221.251z"/>
					<path fill="#FFF200" d="M446.515,223.386l1.685-0.213c-0.186-0.413-0.689-0.927-0.43-1.531L446.515,223.386z"/>
					<polygon fill="#FFF200" points="445.935,224.173 446.515,223.386 445.89,223.462 					"/>
					<path fill="#FFF200" d="M437.353,223.583c-0.44,0.939-1.177,1.216-1.982,1.597c1.006,0.036,2.005-0.067,2.878-0.381
						C438.205,224.246,438.287,223.2,437.353,223.583z"/>
					<path fill="#FFF200" d="M440.814,222.905c-0.033,0.052-0.088,0.092-0.119,0.143
						C440.835,223.153,440.924,223.173,440.814,222.905z"/>
					<path fill="#FFF200" d="M427.045,227.71c0.074,0.087,0.145,0.17,0.222,0.26c-0.018-0.099-0.033-0.189-0.052-0.292
						L427.045,227.71z"/>
					<path fill="#FFF200" d="M438.498,225.05c0.776,0.084,1.049-0.45,1.264-1.08c-0.447,0.334-0.946,0.622-1.514,0.829
						C438.269,225.047,438.308,225.204,438.498,225.05z"/>
					<path fill="#FFF200" d="M432.109,224.387c0.459,0.232,0.949,0.398,1.453,0.533C433.055,224.51,432.102,223.923,432.109,224.387
						z"/>
					<path fill="#FFF200" d="M440.319,222.677c0.024-0.037,0.045-0.077,0.074-0.106
						C440.057,222.298,440.143,222.459,440.319,222.677z"/>
					<path fill="#FFF200" d="M440.319,222.677c-0.267,0.351-0.403,0.843-0.557,1.292c0.366-0.268,0.687-0.571,0.934-0.921
						C440.574,222.962,440.432,222.816,440.319,222.677z"/>
					<path fill="#FFF200" d="M427.507,238.988c-0.305-1.561,1.128-3.492,3.201-2.316c1.235-1.586-1.289-6.285-3.441-8.702
						c0.146,0.677,0.328,1.289-1,2.64c0.79,0.674,4.102,0.937,3.159,2.695c-1.895,1.388-1.896-0.042-3.156-0.556
						c1.425,1.647-1.916,3.533-0.676,6.198l1.603-1.519C427.356,237.852,426.871,238.74,427.507,238.988z"/>
					<path fill="#FFF200" d="M430.309,227.238l0.586-0.389c-0.813-0.04-1.518-0.47-2.837-1.375
						c-0.856,1.047-0.916,1.676-0.843,2.204c0,0,0.815-0.175,1.631-0.349c0.808-0.193,1.615-0.386,1.615-0.386L430.309,227.238z"/>
					<path fill="#FFF200" d="M433.782,225.945c0.015,1.801-1.329,2.986,0.177,4.47c1.877-0.708,0.909-1.79,1.818-2.855
						c-2.934,1.36,0.588-1.189-1.913-1.434c0.511-0.466,1.022-0.719,1.507-0.946c-0.611-0.028-1.218-0.113-1.809-0.261
						c0.04,0.032,0.068,0.055,0.102,0.081l0.013-0.009l0.005,0.027c0.195,0.165,0.277,0.275,0.093,0.202
						c-0.004,0.024-0.039,0.043-0.054,0.053c0.052,0.236,0.058,0.454,0.057,0.663c-0.987-0.064-0.271-0.383-0.057-0.663
						c-0.016-0.083-0.016-0.168-0.04-0.256c-0.007-0.008-0.012-0.012-0.018-0.016l-2.769,1.849
						C431.61,226.877,432.406,226.579,433.782,225.945z"/>
					<path fill="#FFF200" d="M451.918,228.888c-0.147-0.107-0.186-0.224-0.237-0.338
						C451.556,228.821,451.531,228.984,451.918,228.888z"/>
					<path fill="#FFF200" d="M450.299,228.383c0.14-0.31,0.086-1.026,0.867-1.127c0.807,0.251,0.285,0.775,0.516,1.294
						c0.277-0.592,1.088-1.728-0.564-2.003l-0.133,0.3c-1.435-0.095-3.728-1.532-3.595-1.835
						C448.269,226.337,448.958,227.26,450.299,228.383z"/>
					<path fill="#FFF200" d="M442.04,227.718l-2.281,1.67l1.771,0.973l-0.35-0.829C442.747,229.371,442.08,228.432,442.04,227.718z"
						/>
					<polygon fill="#FFF200" points="426.512,226.97 426.341,225.126 425.58,228.016 					"/>
					<polygon fill="#FFF200" points="423.245,228.128 422.938,226.569 422.32,227.738 					"/>
					<path fill="#FFF200" d="M227.867,273.055l-0.812,0.45C227.44,273.366,227.686,273.216,227.867,273.055z"/>
					<path fill="#FFF200" d="M233.741,273.151l0.141-0.779C233.611,272.802,233.5,273.119,233.741,273.151z"/>
					<path fill="#FFF200" d="M339.105,245.722c-1.363-1.262-2.973-3.34-2.568-1.606l0.612,1.666
						C337.896,245.355,338.53,245.436,339.105,245.722z"/>
					<path fill="#FFF200" d="M281.318,262.398c0.122,0.164,0.25,0.338,0.376,0.508c0.244-0.616,0.474-1.193,0.681-1.713
						C282.06,261.572,281.697,261.982,281.318,262.398z"/>
					<path fill="#FFF200" d="M280.941,269.611l-1.621-1.032C279.691,268.948,280.214,269.295,280.941,269.611z"/>
					<path fill="#FFF200" d="M195.771,274.334l-1.005,1.738C196.248,276.11,195.625,275.198,195.771,274.334z"/>
					<path fill="#FFF200" d="M388.711,237.102c-1.112-0.458-1.943-0.575-2.641-0.514
						C387.44,237.318,388.693,238.581,388.711,237.102z"/>
					<path fill="#FFF200" d="M230.166,254.635c-0.486,0.314-0.694,0.668-0.68,1.056
						C229.985,255.393,230.271,255.061,230.166,254.635z"/>
					<path fill="#FFF200" d="M383.247,237.157c0.208,0.136,0.395,0.189,0.599,0.297c0.657-0.428,1.33-0.798,2.225-0.866
						C385.052,236.038,383.968,235.784,383.247,237.157z"/>
					<path fill="#FFF200" d="M80.187,265.228c-0.078-0.086-0.176-0.135-0.245-0.233C79.889,265.225,80.008,265.248,80.187,265.228z"
						/>
					<path fill="#FFF200" d="M51.296,241.147c0.307,0.023,0.771,0.187,1.222,0.307C52.35,241.26,51.97,241.181,51.296,241.147z"/>
					<path fill="#FFF200" d="M409.566,230.955C410.256,230.671,409.634,230.742,409.566,230.955L409.566,230.955z"/>
					<path fill="#FFF200" d="M414.736,236.736c-0.105,0.23-0.161,0.5-0.081,0.894C414.612,237.209,414.647,236.925,414.736,236.736z
						"/>
					<path fill="#FFF200" d="M378.014,249.197c-0.021,0.002-0.039,0.004-0.065,0.007
						C378.233,249.496,378.184,249.439,378.014,249.197z"/>
					<path fill="#FFF200" d="M410.835,231.46c-0.322-0.142-0.674-0.239-1.041-0.278C409.975,231.275,410.294,231.372,410.835,231.46
						z"/>
					<path fill="#FFF200" d="M410.492,230.698c0.265,0.016,0.47,0.011,0.666,0.011C411.179,230.408,411.056,230.251,410.492,230.698
						z"/>
					<path fill="#FFF200" d="M408.591,231.288c0.403-0.126,0.806-0.139,1.202-0.107c-0.169-0.08-0.251-0.161-0.227-0.226
						C409.362,231.032,409.075,231.138,408.591,231.288z"/>
					<path fill="#FFF200" d="M142.405,265.331c-0.045-0.059-0.1-0.099-0.149-0.174C141.443,265.82,141.786,265.729,142.405,265.331z
						"/>
					<path fill="#FFF200" d="M322.225,266.266c0.034-0.021,0.048-0.068,0.077-0.093c-0.038-0.015-0.085-0.034-0.12-0.047
						L322.225,266.266z"/>
					<path fill="#FFF200" d="M319.659,267.87c0.902-2.281,1.589-2.095,2.523-1.745l-1.507-4.86L319.659,267.87z"/>
					<path fill="#FFF200" d="M213.807,273.426l1.896,1.584c-2.357,2.536-4.031,1.628-2.256,3.845
						c0.357-5.43,7.499-0.458,7.817-5.883l1.257,1.159c-0.362-0.058-0.422,0.263-0.781,0.204c2.444,2.632,1.855-3.893,5.011-3.128
						c1.102,0.413,1.872,1.202,1.118,1.848l2.46-1.349c0.715,0.104,0.542,1.048-0.171,0.946l3.751-0.44l-0.027,0.16
						c0.532-0.854,1.736-2.175,2.321-2.735c0.958,0.778-0.473,0.577-0.225,1.254l2.062-1.32c0.857,1.406-0.85,2.775-2.286,2.577
						c1.986,5.411,1.709-1.34,5.934,1.742l-1.958,0.726c1.305,3.058,2.83,1.913,5.096,3.795c-0.555-0.994-4.534-4.761-2.293-6.156
						c0.642,0.4,1.486,0.58,2.683-0.536c0.044,1.931,1.227,1.434,2.713,1.298l-0.049,2.56c1.598-0.767,1.442-2.068,2.362-3.237
						c1.798,0.22,2.22,2.194,2.688,3.856c2.892,0.323-2.069-3.111,1.32-3.7c2.416,0.891,4.067-0.213,6.863-1.845
						c1.701,0.819-0.233,1.573,0.391,2.284l1.404-2.092c0.364,0.036,0.272,0.666,0.226,0.984c1.215-0.835,0.002-2.56,1.928-3.324
						c0.206-1.418,1.248-0.424,2.533,0.512c1.283,0.917,2.811,1.768,3.942,0.104c0.633,0.693-0.21,1.582,0.022,2.562
						c3.222-2.279,2.779-1.68,5.344-4.648l2.419,1.551c-1.819-1.826,0.225-4.215,1.998-6.181c-0.659-0.894-1.221-1.676-1.588-2.044
						c0,0,0.73-0.384,1.464-0.767c0.729-0.395,1.459-0.789,1.459-0.789c0.391,0.393,0.146,1.291-0.278,2.395
						c0.191-0.226,0.373-0.449,0.512-0.653c1.14,0.863,0.682,2.378-0.001,3.861c-0.402-0.476-0.803-0.983-1.191-1.495
						c-0.647,1.593-1.243,3.347-0.994,4.835c0.18-0.306,0.545-0.58,0.954-0.745c-0.17,0.433-0.271,0.815-0.165,1.065
						c0.121,0.262,0.403-0.312,0.858-1.003l0.878,2.795l0.093-1.144l4.114,1.485c2.656-3.081,4.8-7.464,9.18-8.991
						c-0.934,2.19,0.051,3.427,0.2,5.903c-1.451-2.516-3.409,1.374-5.803,1.019c1.246,0.185,1.068,1.382,0.788,1.816l3.997-2.69
						c0.074,2.026,1.016,1.454,2.182,2.177c-1.169-3.912,2.882-2.955,4.465-4.339c0.231,1.329-0.049,2.735-2.155,2.61
						c2.571,2.784,2.519-4.968,4.998-2.63c-0.501,0.082-0.794-0.099-0.927,0.603c1.063-1.303,4.04-0.636,3.48,0.594l-0.502,0.075
						c3.414,0.207,10.232-1.106,10.327-4.527c0.085,0.432,0.039,4.125-0.085,4.832c0,0,1.155-3.018,2.312-6.035
						c1.128-3.015,2.257-6.028,2.257-6.028c-0.163,2.961,2.733,9.627,0.153,11.593c0.851,0.317,1.906,0.684,3.463-0.539
						c-0.601-0.346-1.896-4.031-1.188-4.383c2.454,2.966,1.631,1.534,4.515,3.934c-0.898-0.505-0.603-5.175,0.692-5.209
						c-0.107,0.707,0.722,4.465,0.315,5.004l2.579-4.906c-0.683,0.915,0.393,3.795,1.292,4.951
						c-0.459-0.824,2.791-0.312,3.583-0.873l-1.514-0.84c3.729,0.159,2.63-6.739,6.202-7.104c-0.281,0.987-0.174,5.826,1.737,6.082
						c0.481-2.417,1.9-11.551,4.686-13.811l0.819,1.198l2.123-1.874c-0.861,3.657-3.838,11.547-5.717,14.738
						c1.521,0.804,0.628,1.47,2.638,1.014c0.922,1.099-0.799,2.032-1.388,2.203l4.875-0.002c-0.666-2.618,3.158-3.259,2.579-5.437
						l-4.645,3.6c-0.649-2.618,1.675-8,5.044-8.11c1.024,0.904,0.213,4.825,0.438,5.695c0.266-0.987,2.818-2.298,3.236-1.705
						l-1.146,1.664c2.015,0.669,2.367-4.042,5.024-1.909c0.791,0.037,2.894,2.994,2.742,1.405
						c-1.793-2.791-3.714-12.089-3.302-14.509c0.302,0.157,4.5,2.161,5.644,3.493c1.688,2.139-0.845,5.984,0.594,7.821
						c-0.086-0.73,0.443-1.749,0.679-2.088c0.914,0.47,0.08,2.298,1.761,1.654c-0.206-2.729,3.58-0.433,0.402-2.416
						c1.557-1.084,1.909,0.21,3.884-0.284c-0.958-1.61,0.676-6.231,2.22-7.313c0.031,0.7,0.582,1.514,0.844,1.883
						c3.515-0.423,5.614,0.404,8.858-0.21c0.429,0.588,2.153,1.059,1.721,2.342c0.371-0.563,0.613-1.564,1.599-1.838
						c2.411,1.902-2.155,0.829-0.109,3.292c-0.191-1.577,2.148-2.685,3.363-3.954c-0.942-2.302-3.374,0.232-4.604,1.5
						c-0.679-3.306,1.077-7.289,4.093-9.518c2.482-1.379,1.611,1.89,1.973,1.323c5.13-0.516,2.963-6.7,7.616-5.241
						c2.119,1.727,1.036,4.152,1.747,5.581c-1.989,1.283-3.635-0.581-5.08-0.167l2.03,0.586c-0.531,0.852-1.866,1.708-2.791,1.278
						c1.807,1.577,8.547-1.526,12.817-0.767c0.517-0.867,1.52-1.877,0.752-2.582l-1.146,0.587c-1.527-1.416,1.714-2.883-0.016-3.295
						c1.34-1.568,2.672-3.879,5.171-3.533l1.043,2.262c-0.23-0.679-1.849-1.025-2.302-0.135c0.666-1.297,4.326,2.298,4.546-1.079
						l-2.023-1.227c1.302-1.629,2.618-4.618,4.787-4.451c-1.543-2.083-0.381,0.409-2.533-1.948c2.145,3.082-5.114,1.187-2.198,4.252
						c-2.287-2.801-2.869-0.689-5.45-2.913c0.255,0.766,1.053,1.334-0.718,1.365c-0.018,0.248-0.124,0.583-0.194,0.781
						c-0.057-0.009-0.077-0.017-0.128-0.031c0.042,0.025,0.074,0.045,0.116,0.071c-0.044,0.135-0.044,0.161,0.043,0.023
						c0.484,0.246,0.913,0.581,1.154,0.986c-0.383,2.004-3.086,2.598-3.769,3.753c-1.095-0.131,0.201-1.004-0.549-1.71l-1.021,1.727
						c-0.556-1.715-3.344-2.261-1.237-3.854l-2.13,0.433c-1.478-0.691-3.284-0.703-4.178,0.275c-1.085-0.154-2.097,2.51-1.529,0.941
						l-3.099,1.836l-0.126-0.433c-3.353,0.463-6.21,4.373-10.665,1.947c-1.029,0.667-2.08,1.441-4.055,1.313l-0.663-1.453
						c-1.33,0.828-4.617-0.689-4.933,1.019c-2.335-3.812-7.16,0.431-9.854,0.156l0.27,2.013c-1.777,0.205-3.35,1.084-5.396,2.277
						l0.452,1.741c-1.628,1.786-5.08-0.389-8.034,0.321c0.082-0.709,0.872-0.668,1.48-0.355c-4.253-3.366-6.958,4.154-10.665,1.787
						c-0.693,0.777-1.308,0.654-1.938,0.301c0.074-0.016,0.136-0.061,0.184-0.126c-0.085-0.007-0.207,0.008-0.331,0.033
						c-0.4-0.246-0.816-0.541-1.255-0.759c0.4,0.375,0.777,0.677,1.08,0.794c-0.609,0.14-1.507,0.514-2.354,1.111l-0.683-1.845
						c-0.07,0.035-0.131,0.041-0.204,0.084c-1.005-0.576-0.588,1.003,0.111,2.368c-0.415,0.379-0.781,0.815-1.043,1.322
						c-1.191-2.973-2.266,1.377-3.744-1.763c-0.389,1.688-4.447,1.857-4.484,5.299c-0.09-0.435-0.391-0.605,0.104-0.704
						c-1.084-0.239-2.16-0.477-2.96,0.604l-0.754-2.368l-1.834,3.542c-1.562-1.318-2.229-2.113-1.106-4.143
						c-2.921,3.261-2.519,1.396-4.977,4.578l-0.047-1.589c-0.989,0.177-2.349,2.474-3.1,1.243
						c-2.546-2.658-11.129,0.697-17.11-1.521c1.507,4.557-2.842-1.858-2.771,1.745c-0.425-1.073-1.273-1.635-0.422-2.659
						c-2.844,1.298-4.521-1.417-6.32,1.771c-0.413-1.079,0.511-1.659,0.165-2.29c-0.217,0.256-0.858,1.026-1.211,0.393
						c-0.344-0.632,0.363-0.955,0.79-1.469c-2.962,0.406-3.039,3.819-3.046,7.019c-1.623-1.386-2.364-1.133-3.339,1.012
						c-0.599-1.012-1.547-2.054,0.298-2.528c-1.064-0.094-6.501-1.178-6.472,1.38c-0.363-0.629-1.479-0.108-1.742,0.201
						c-2.368-0.024-2.587-0.241-4.895,0.124l0.662,0.385c-0.777,3.134-1.902,0.762-3.759,1.204l0.04-0.319
						c-4.379-2.068-1.819,1.133-6.143-1.253l0.293,1.909c-0.264,4.131-3.834-2.28-6.241-0.65l0.917,1.08
						c-1.316,1.436-3.896-5.542-5.24-6.032c-0.299-0.355,0.45-0.585,0.852-0.858c-3.558-2.369-0.4,2.521-3.014,3.152
						c-0.508-1.346,0.558-3.457-1.205-3.677c-0.886-1.096-5.05,4.523-7.489,1.908c0.537,1.044,1.075,2.086-0.141,2.873
						c-1.875,0.378-5.068-3.938-6.751-0.642c-0.237-0.284-0.328-0.56-0.337-0.819c-1.429,0.851-4.648,1.428-5.524,3.205
						c-1.266-6.645-8.948,3.104-8.84-3.005l-4.405,0.269l0.127-0.621c-2.802-0.457-3.828,0.962-4.855,2.407
						c-0.641-0.434-0.151-0.991-0.09-1.31c-4.084-1.343-4.488-1.095-8.037,1.854l-0.295-1.991c-0.979,1.148-5.833-3.322-9.95-1.172
						c0.049-0.224,0.147-0.604,0.479-0.869c-2.315,1.068-4.974-0.403-7.289-1.275c-2.317-0.884-4.299-1.138-5.313,2.425l-3.09,1.622
						c3.854,0.761-0.743,3.099,0.793,4.379c-1.555,0.345-3.841-2.378-1.94-2.652l0.275,0.376c0.891-3.724-4.754-1.58-4.504-4.135
						c-7.642-0.291-14.936-2.81-22.053-3.51l0.613,2.978l-2.482-0.345c-0.604-0.728-0.709-2.347,1.058-2.1
						c-0.812-1.72-3.08,1.174-3.18,1.805c-3.391-1.432,1.613-3.305,0.551-3.453l-1.463,0.114l0.3,0.366
						c-1.262,1.105-1.465,2.37-3.584,2.052c-1.302-0.692-0.551-1.854-1.071-2.01c0.019-0.206-0.152-0.317-0.806-0.148l-3.105-0.5
						l1.062,2.403c-1.48,1.023-2.936-0.356-1.704,2.368c-0.897-2.097-3.786-2.691-6.603-2.93c-2.86-0.251-5.666-0.17-6.278-0.828
						c-2.105,1.541-4.056,1.36-6.444,1.012c0.568,0.517,0.754,3.131-1.294,2.681c1.096-5.301-3.649-2.563-5.069-6.511
						c1.321,2.647-5.889,0.26-3.787,4.031c-1.687-0.544,0.025-2.01-1.192-3.352c-4.225,1.814-8.83-1.963-13.803-1.717
						c-0.146,0.693,0.582,1.849-0.578,2.783l-2.246-3.767c-0.994,0.238-1.342,3.96-2.833,1.321c0.179,0.619,0.451,1.553-0.225,1.694
						c-4.613-2.269-9.507-2.29-14.366-2.926c-1.217-0.145-2.398-0.395-3.584-0.665c-1.184-0.274-2.35-0.617-3.445-1.141
						c-1.104-0.504-2.175-1.107-3.178-1.861c-0.973-0.809-1.88-1.756-2.688-2.876c0.721,1.681-0.098,1.547-1.028,1.29
						c0.482,0.505-0.599,1.631-0.805,2.566c0,0-0.735-0.927-1.382-1.933c-0.645-0.978-1.289-1.956-1.289-1.956
						c-0.819,1.071-1.853,0.778-2.74,0.344c-0.903-0.413-1.762-0.817-2.516,0.223l1.312,0.136c-1.385,0.983-1.617,2.719-1.635,4.677
						c-0.013,0.977,0.023,2.006-0.043,3.004c-0.06,0.979-0.225,1.933-0.674,2.784c1.659-1.155,2.413,0.512,3.502,2.112
						c0.535,0.816,1.158,1.543,1.953,1.864c0.792,0.323,1.757,0.243,2.952-0.638c0.488,0.991-1.002,0.966-0.889,1.942
						c1.36-1.269,2.441-1.258,4.128-0.045l-0.326,0.33c1.358,0.276,2.491,0.618,3.521,1.02c1.033,0.36,1.962,0.771,2.907,1.241
						c0.945,0.458,1.908,1.008,3.003,1.519c1.094,0.509,2.32,1.049,3.798,1.599l-0.116-1.949c1.249,0.49,1.423,1.137,1.954,1.692
						c0.978-1.31,0.077-1.466-0.834-1.719c-0.912-0.249-1.826-0.538-0.872-1.97c0.504,2.081,2.792,2.464,4.984,2.87
						c2.2,0.444,4.302,0.815,4.616,3.071c1.995,0.272-0.312-2.249,1.671-1.977l0.388,1.244l0.677-1.454
						c1.268,0.4,1.761,1.93,1.704,2.937c-0.304-0.151-0.931,0.188-1.28,0.236c1.548,1.563,4.833,0.018,5.365,0.529l-1.844-0.923
						c5.515-0.562,11.967,1.474,17.242-0.62l-0.332-0.918c4.018-1.396,3.064,1.177,7.391,0.68l-0.168,0.203
						c0.906-0.834,2.07-1.21,3.228-1.034c-1.139,0.976,1.886,2.16,0.404,3.226c4.299-1.496,2.147-1.251,5.148-4.372l0.527,1.524
						c1.041-1.273,1.174-1.976,3.32-2.176c-1.833,1.122,1.158,2.366-0.909,3.88c4.088,3.609,6.9-2.72,8.543,2.175
						c2.41-3.927-3.7-2.582-2.468-3.365c-0.85-1.414,1.964-2.922,3.335-2.398c1.423,0.205,2.003,5.43,5.633,5.641
						c-0.359-0.048-0.407,0.26-0.766,0.214c1.273,1.149,2.764-1.195,4.293,0.62c1.115-2.407,2.144,0.297,2.646-2.841l-3.367,0.493
						c1.942-0.689,3.972-4.26,6.927-2.246c-0.286,0.62-1.266,1.392-1.933,1.814c0.837,0.995,1.785-0.493,2.654,0.53
						c-0.495,3.144-4.073,0.399-6.267,2.666c0.873,1.404,3.979-2.016,2.716,1.333c1.771-4.248,3.524,0.806,6.208-2.343l-0.294,1.881
						c0.408-0.271,1.274-1.106,1.983-1.007l-1.46,2.361c2.126-1.954,3.7,2.112,5.686,1.084c-3.996-0.193-0.745-2.333-2.336-3.829
						c5.076-2.22,2.499,5.133,8.073,4.57c-0.764,0.22-2.73-1.313-1.508-2.117c1.024,0.453,2.364,1.268,2.948,2.302
						c3.676-0.167-0.444-1.984,1.18-3.051c1.104,2.385,1.848-0.829,3.485-1.468l-0.1,1.926c4.089,1.47,1.328-3.951,4.984-2.262
						l-1.728,2.589l1.989-0.589l-0.521,2.172c2.215-1.517,2.852-1.062,4.904-0.34c-0.416-1.382,0.448-3.481,2.29-3.448
						c1.199,1.209-0.792,1.795,1.832,1.654c-0.645,1.176-1.367,2.656-2.417,0.823c-0.147,0.621-0.641,1.179-0.792,1.794
						c1.291,1.386,3.394,0.475,4.341,0.507c-0.362-0.091-0.792-0.217-1.003-0.504l3.913-2.504c0.564,0.748,0.066,1.311-0.429,1.861
						c0.778-0.178,1.347-1.042,2.483-1.163c-0.358,1.556-0.356,3.176-1.992,3.85l3.693-1.594c0.214,0.69,1.784,1.946,1.291,2.505
						c1.979,0.996,5.04-2.834,7.658-1.533c0.148-0.3,0.436-0.585,1.008-0.793c2.488,0.423,4.657,2.407,7.681,0.337l1.617,2.857
						c2.339-0.575-2.194-3.604,1.695-4.559c2.752-0.824,0.97,2.427,1.916,3.231c1.397-1.398,3.807-4.253,6.288-1.931
						C215.235,273.652,214.588,273.228,213.807,273.426z M242.477,272.219c-0.548,0.414-1.642,1.686-2.062,0.555
						C241.021,270.551,241.521,271.6,242.477,272.219z M285.746,265.798c-0.365,0.667-1.024,0.398-1.788-0.277
						C284.467,265.324,285.059,265.353,285.746,265.798z M402.057,234.365c-0.015,0.035-0.025,0.061-0.036,0.104
						C400.675,234.001,401.159,234.197,402.057,234.365z M404.688,234.614c0.185-0.322,0.105-0.578-0.061-0.815
						c-0.059,0.515-0.595,0.684-1.251,0.697C403.667,234.95,404.061,235.208,404.688,234.614z M135.375,251.778l0.452,0.542
						C134.673,252.787,135.024,252.312,135.375,251.778z"/>
					<path fill="#FFF200" d="M281.002,268.774c-0.178-0.317-0.242-0.674-0.303-1.033
						C280.502,268.075,280.521,268.45,281.002,268.774z"/>
					<path fill="#FFF200" d="M195.958,274.014c-0.029-0.016-0.058-0.011-0.086-0.024c-0.052,0.115-0.081,0.231-0.101,0.345
						L195.958,274.014z"/>
					<path fill="#FFF200" d="M369.404,258.559c-0.569-0.178-0.922-0.473-1.18-0.798C368.281,258.231,368.588,258.58,369.404,258.559
						z"/>
					<path fill="#FFF200" d="M416.717,228.222l-1.411,0.89c0.721-0.288,1.093,0.05,1.548,0.249
						C416.703,228.932,416.243,228.378,416.717,228.222z"/>
					<path fill="#FFF200" d="M433.409,235.91c0.16-0.296,0.477-0.175,0.632-0.474l-0.324-0.839
						C432.768,234.954,432.296,235.857,433.409,235.91z"/>
					<path fill="#FFF200" d="M419.803,234.043c0.543,1.531,1.387,0.753,2.396,0.16c-0.064,0.024-0.121,0.055-0.192,0.055
						C421.728,231.981,420.77,233.02,419.803,234.043z"/>
					<path fill="#FFF200" d="M422.437,234.078c0.314-0.168,0.645-0.309,0.992-0.326
						C423.312,232.839,422.973,233.686,422.437,234.078z"/>
					<path fill="#FFF200" d="M407.524,232.819c0.616,0.282-0.165-2.094,0.284-1.523C407.9,229.148,404.951,234.561,407.524,232.819z
						"/>
					<polygon fill="#FFF200" points="422.085,238.972 421.166,237.142 420.968,238.863 					"/>
					<path fill="#FFF200" d="M412.993,239.815c0,0,0.477,0.027,0.952,0.054c0.475,0.02,0.949,0.039,0.949,0.039
						c-0.108-0.319,0.066-0.568,0.304-0.786C414.099,239.351,412.809,239.251,412.993,239.815z"/>
					<path fill="#FFF200" d="M415.198,239.123c0.575-0.109,1.103-0.293,1.334-0.693
						C416.233,238.531,415.592,238.768,415.198,239.123z"/>
					<polygon fill="#FFF200" points="419.823,240.187 419.194,239.919 417.909,240.105 					"/>
					<path fill="#FFF200" d="M393.826,243.826L392,244.798c-0.058,0.714,0.561,1.013,1.229,0.593
						C393.597,244.825,394.264,244.413,393.826,243.826z"/>
					<path fill="#FFF200" d="M400.895,247.899c-0.619-0.287-0.752-0.716-1.193-1.293l0.479,2.439L400.895,247.899z"/>
					<path fill="#FFF200" d="M395.305,249.717c-0.049,0.716-2.44,2.537,0.02,1.858C395.382,250.864,397.229,249.892,395.305,249.717
						z"/>
					<polygon fill="#FFF200" points="365.137,252.412 365.631,252.291 364.829,248.295 					"/>
					<path fill="#FFF200" d="M340.495,266.539c2.522,0.577,0.178-2.576,2.504-1.727c0.405-1.043-1.9-0.69-1.458-1.607
						C340.273,264.453,339.43,263.983,340.495,266.539z"/>
					<path fill="#FFF200" d="M341.54,263.204c0.203-0.195,0.414-0.429,0.631-0.732C341.798,262.791,341.634,263.016,341.54,263.204z
						"/>
					<polygon fill="#FFF200" points="47.595,237.216 46.801,235.875 46.958,237.479 					"/>
					<path fill="#FFF200" d="M43.964,238.796l0.913-2.442l-1.826,1.724C43.385,238.112,44.021,238.173,43.964,238.796z"/>
					<path fill="#FFF200" d="M246.842,277.37l0.105-0.627c-0.252-0.671-0.612-0.715-1.338-0.808L246.842,277.37z"/>
					<polygon fill="#FFF200" points="225.924,275.6 226.283,275.652 225.622,273.305 					"/>
					<path fill="#FFF200" d="M208.359,278.373c0.713,0.12,1.565-0.385,2.283-0.279C209.071,278.504,208.229,275.436,208.359,278.373
						z"/>
				</g>
			</g>
		</g>
	</g>
</g>
</svg>
