<?xml version="1.0" encoding="utf-8"?>
<!-- Generator: Adobe Illustrator 16.0.0, SVG Export Plug-In . SVG Version: 6.00 Build 0)  -->
<!DOCTYPE svg PUBLIC "-//W3C//DTD SVG 1.1//EN" "http://www.w3.org/Graphics/SVG/1.1/DTD/svg11.dtd">
<svg version="1.1" id="Layer_1" xmlns="http://www.w3.org/2000/svg" xmlns:xlink="http://www.w3.org/1999/xlink" x="0px" y="0px"
	 width="59.653px" height="258.318px" viewBox="440.347 153.731 59.653 258.318"
	 enable-background="new 440.347 153.731 59.653 258.318" xml:space="preserve">
<g display="none">
	<g display="inline">
		<path fill="none" stroke="#FFFDE7" stroke-miterlimit="10" d="M363.885,61.41"/>
	</g>
</g>
<g>
	<g>
		<g>
			<g>
				<g>
					<path fill="#0600FF" d="M472.992,158.542c-0.032-0.413-0.837-0.376-1.004-0.459
						C472.35,158.809,473.207,158.556,472.992,158.542z"/>
					<polygon fill="#0600FF" points="476.627,165.919 476.249,165.721 477.338,166.948 					"/>
					<path fill="#0600FF" d="M477.974,172.53c1.351-0.245-0.673-2.452-0.41-3.501l0.292-0.118l-1.298-0.806
						C477.081,169.576,478.186,171.627,477.974,172.53z"/>
					<path fill="#0600FF" d="M475.396,175.109c0.546-0.042,0.618,0.884,0.053-0.744c-0.05,0.059-0.084,0.07-0.123,0.103
						C475.355,174.607,475.386,174.797,475.396,175.109z"/>
					<path fill="#0600FF" d="M475.325,174.468C475.173,173.782,474.911,174.77,475.325,174.468L475.325,174.468z"/>
					<path fill="#0600FF" d="M476.162,177.682l-0.663-1.047c-0.313,0.083-0.263,0.845-0.56,0.476
						C475.37,178.103,475.682,178.027,476.162,177.682z"/>
					<path fill="#0600FF" d="M477.389,178.869l-0.295-0.534C476.963,178.371,476.933,178.478,477.389,178.869z"/>
					<path fill="#0600FF" d="M476.471,177.21l0.623,1.125c0.22-0.054,0.702,0.08-0.24-0.503
						C477.308,178.049,476.852,177.722,476.471,177.21z"/>
					<path fill="#0600FF" d="M476.608,176.723c0.243-0.403,0.341-0.998,1.004,0.059
						C477.128,174.995,476.123,174.954,476.608,176.723z"/>
					<path fill="#0600FF" d="M479.568,173.273l0.302-0.582l-0.609-0.729C479.563,172.326,479.113,173.194,479.568,173.273z"/>
					<path fill="#0600FF" d="M476.193,182.942c0.327,0.166,0.811-0.003,1.21,0.07l-0.456-0.78
						C476.775,182.494,476.66,183.062,476.193,182.942z"/>
					<path fill="#0600FF" d="M477.403,183.013l0.683,1.174C478.03,183.329,477.748,183.078,477.403,183.013z"/>
					<polygon fill="#0600FF" points="479.075,179.552 477.662,177.554 479.142,179.875 					"/>
					<polygon fill="#0600FF" points="476.62,186.64 475.816,185.818 477.047,187.21 					"/>
					<path fill="#0600FF" d="M477.028,189.146c-0.661-0.642-0.979,0.154-1.405-0.419c0.184,0.704,0.78,1.477,1.296,2.174
						C476.61,190.254,476.61,189.704,477.028,189.146z"/>
					<path fill="#0600FF" d="M477.691,192.034c-0.173-0.331-0.463-0.717-0.772-1.134
						C477.089,191.245,477.318,191.61,477.691,192.034z"/>
					<path fill="#0600FF" d="M478.152,185.81c-0.186,0.006-0.675-0.032-0.828,0.436l0.857-0.055
						C478.172,186.074,478.162,185.942,478.152,185.81z"/>
					<path fill="#0600FF" d="M478.209,186.187l-0.026,0.003c0.025,0.412,0.039,0.694,0.042,0.814
						C478.224,186.901,478.219,186.655,478.209,186.187z"/>
					<path fill="#0600FF" d="M478.146,185.714c0.002,0.035,0.005,0.061,0.007,0.096
						C478.236,185.804,478.263,185.792,478.146,185.714z"/>
					<path fill="#0600FF" d="M478.648,181.905c0.581,0.748,1.288,2.161,1.892,1.231
						C479.868,182.509,479.524,183.037,478.648,181.905z"/>
					<path fill="#0600FF" d="M479.208,185.635l0.061-0.982c-0.233-0.062-0.555,0.005-0.844-0.37L479.208,185.635z"/>
					<polygon fill="#0600FF" points="479.56,186.253 479.208,185.635 479.185,185.999 					"/>
					<path fill="#0600FF" d="M478.37,190.602c0.446,0.604,0.516,1.104,0.632,1.683c0.122-0.522,0.171-1.096,0.096-1.685
						C478.805,190.407,478.266,189.954,478.37,190.602z"/>
					<path fill="#0600FF" d="M478.371,188.489c0.023,0.038,0.039,0.083,0.063,0.119
						C478.504,188.575,478.522,188.536,478.371,188.489z"/>
					<path fill="#0600FF" d="M479.47,197.719c0.053-0.005,0.104-0.011,0.158-0.017c-0.054-0.029-0.103-0.056-0.157-0.086
						L479.47,197.719z"/>
					<path fill="#0600FF" d="M479.255,190.565c0.123-0.381-0.128-0.736-0.436-1.097c0.129,0.37,0.229,0.749,0.278,1.133
						C479.229,190.687,479.315,190.727,479.255,190.565z"/>
					<path fill="#0600FF" d="M478.252,193.715c0.169-0.154,0.307-0.351,0.429-0.567
						C478.414,193.259,478.009,193.537,478.252,193.715z"/>
					<path fill="#0600FF" d="M478.201,188.664c-0.017-0.027-0.035-0.054-0.048-0.081
						C477.977,188.656,478.069,188.673,478.201,188.664z"/>
					<path fill="#0600FF" d="M478.201,188.664c0.156,0.28,0.399,0.546,0.618,0.803c-0.102-0.3-0.228-0.59-0.386-0.859
						C478.377,188.639,478.286,188.658,478.201,188.664z"/>
					<path fill="#0600FF" d="M485.413,201.888c-0.848-0.448-1.71-1.97-0.882-2.615c-0.703-1.28-3.418-1.773-4.903-1.571
						c0.369,0.188,0.708,0.33,1.277,1.568c0.434-0.158,0.911-1.822,1.733-0.631c0.531,1.554-0.217,0.996-0.614,1.466
						c1.007-0.115,1.649,2.406,3.171,2.788l-0.63-1.45C484.804,201.524,485.218,202.13,485.413,201.888z"/>
					<path fill="#0600FF" d="M479.559,195.792l-0.145-0.465c-0.104,0.418-0.4,0.625-1.01,0.976c0.46,0.867,0.782,1.145,1.066,1.312
						c0,0-0.009-0.504-0.016-1.007c-0.018-0.506-0.036-1.013-0.036-1.013L479.559,195.792z"/>
					<path fill="#0600FF" d="M479.238,193.432c0.943,0.697,1.425,1.879,2.355,1.656c-0.178-1.279-0.844-1.187-1.307-2.089
						c0.411,2.099-0.562-0.779-0.946,0.459c-0.19-0.455-0.271-0.827-0.339-1.175c-0.077,0.315-0.185,0.605-0.323,0.863
						c0.021-0.009,0.036-0.015,0.053-0.023l-0.004-0.01l0.016,0.008c0.105-0.04,0.173-0.04,0.115,0.03
						c0.012,0.012,0.018,0.038,0.022,0.05c0.128,0.065,0.242,0.146,0.353,0.229c-0.136,0.502-0.229-0.005-0.353-0.229
						c-0.046-0.024-0.09-0.058-0.139-0.079c-0.005,0-0.008,0.001-0.01,0.003l0.682,2.202
						C479.502,194.956,479.429,194.415,479.238,193.432z"/>
					<path fill="#0600FF" d="M482.64,184.906c-0.071,0.036-0.136,0.011-0.201-0.006C482.566,185.073,482.65,185.15,482.64,184.906z"
						/>
					<path fill="#0600FF" d="M482.209,185.573c-0.147-0.196-0.528-0.448-0.5-0.905c0.214-0.332,0.435,0.152,0.729,0.232
						c-0.281-0.38-0.792-1.257-1.105-0.483l0.144,0.188c-0.197,0.729-1.184,1.39-1.329,1.2
						C480.931,185.854,481.484,185.848,482.209,185.573z"/>
					<path fill="#0600FF" d="M481.014,189.72l0.64,1.871l0.689-0.564l-0.469-0.138C481.95,189.989,481.391,189.978,481.014,189.72z"
						/>
					<polygon fill="#0600FF" points="479.027,197.714 478.047,197.083 479.479,198.621 					"/>
					<polygon fill="#0600FF" points="479.298,199.91 478.451,199.463 478.999,200.251 					"/>
					<path fill="#0600FF" d="M482.724,321.771l0.151,0.609C482.842,322.12,482.789,321.93,482.724,321.771z"/>
					<path fill="#0600FF" d="M483.377,318.674l-0.393-0.381C483.181,318.605,483.336,318.79,483.377,318.674z"/>
					<path fill="#0600FF" d="M479.856,251.703c-0.8,0.232-2.052,0.278-1.104,0.741l0.934,0.325
						C479.541,252.205,479.647,251.897,479.856,251.703z"/>
					<path fill="#0600FF" d="M482.641,289.072c0.099-0.001,0.202-0.002,0.304-0.002c-0.296-0.372-0.574-0.719-0.825-1.034
						C482.285,288.354,482.463,288.707,482.641,289.072z"/>
					<path fill="#0600FF" d="M486.373,292.098l-0.706,0.461C485.897,292.505,486.133,292.362,486.373,292.098z"/>
					<path fill="#0600FF" d="M480.097,339.4l0.806,1.217C481.074,339.841,480.533,339.816,480.097,339.4z"/>
					<path fill="#0600FF" d="M480.443,221.854c-0.354,0.415-0.5,0.812-0.54,1.208C480.426,222.617,481.215,222.443,480.443,221.854z
						"/>
					<path fill="#0600FF" d="M473.33,313.331c0.115,0.383,0.277,0.632,0.482,0.776C473.708,313.724,473.563,313.441,473.33,313.331z
						"/>
					<path fill="#0600FF" d="M479.91,224.792c0.094-0.058,0.14-0.137,0.218-0.203c-0.156-0.519-0.28-1.022-0.225-1.526
						C479.512,223.391,479.268,223.87,479.91,224.792z"/>
					<path fill="#0600FF" d="M463.469,397.52c-0.054,0.008-0.09,0.041-0.147,0.039C463.436,397.677,463.46,397.623,463.469,397.52z"
						/>
					<path fill="#0600FF" d="M447.913,403.509c0.044-0.155,0.177-0.339,0.286-0.531C448.08,402.99,448,403.162,447.913,403.509z"/>
					<path fill="#0600FF" d="M479.371,208.317C479.294,207.838,479.267,208.198,479.371,208.317L479.371,208.317z"/>
					<path fill="#0600FF" d="M482.924,207.822c0.11,0.146,0.246,0.282,0.46,0.393C483.158,208.073,483.014,207.943,482.924,207.822z
						"/>
					<path fill="#0600FF" d="M485.668,232.299c-0.001,0.012-0.002,0.022-0.003,0.038
						C485.847,232.299,485.812,232.303,485.668,232.299z"/>
					<path fill="#0600FF" d="M479.766,207.838c-0.107,0.117-0.194,0.267-0.253,0.447
						C479.58,208.225,479.664,208.093,479.766,207.838z"/>
					<path fill="#0600FF" d="M479.332,207.723c0.036-0.135,0.054-0.247,0.074-0.351
						C479.251,207.242,479.156,207.247,479.332,207.723z"/>
					<path fill="#0600FF" d="M479.445,208.969c-0.025-0.265,0.01-0.485,0.067-0.684c-0.059,0.059-0.11,0.071-0.142,0.032
						C479.391,208.457,479.416,208.651,479.445,208.969z"/>
					<path fill="#0600FF" d="M469.91,364.355c-0.034,0.001-0.062,0.015-0.105,0.012C470.068,365.06,470.055,364.842,469.91,364.355z
						"/>
					<path fill="#0600FF" d="M488.862,268.756c-0.008-0.026-0.031-0.053-0.04-0.078c-0.013,0.016-0.026,0.032-0.037,0.046
						L488.862,268.756z"/>
					<path fill="#0600FF" d="M489.438,270.753c-1.1-1.374-0.931-1.668-0.653-2.029l-2.695-1.1L489.438,270.753z"/>
					<path fill="#0600FF" d="M481.474,329.419l1.023-0.391c1.083,2.25,0.437,2.788,1.777,2.708c-2.802-2.314,0.53-4.181-2.272-6.475
						l0.735-0.217c-0.067,0.171,0.094,0.328,0.026,0.496c1.627-0.272-1.845-2.514-1.12-3.897c0.329-0.428,0.819-0.529,1.079,0.125
						l-0.452-1.84c0.129-0.342,0.604,0.12,0.479,0.461l0.154-2.174l0.081,0.077c-0.393-0.619-0.959-1.777-1.192-2.31
						c0.506-0.206,0.254,0.479,0.634,0.611l-0.479-1.617c0.823,0.093,1.363,1.539,1.112,2.229c3.032,1.059-0.525-1.437,1.521-2.483
						l0.178,1.327c1.732,0.501,1.291-0.761,2.508-1.233c-0.577-0.093-2.955,0.557-3.454-1.187c0.275-0.186,0.455-0.566-0.005-1.642
						c1.015,0.732,0.876-0.093,0.957-0.939l1.333,1.028c-0.237-1.153-0.933-1.579-1.449-2.528c0.299-0.872,1.375-0.325,2.291,0.076
						c0.467-1.417-1.838-0.113-1.798-2.153c0.714-0.94,0.306-2.254-0.26-4.386c0.603-0.586,0.799,0.741,1.234,0.687l-0.949-1.568
						c0.056-0.18,0.375,0.116,0.537,0.265c-0.312-0.976-1.338-1.003-1.54-2.33c-0.72-0.665-0.094-0.833,0.527-1.151
						c0.611-0.326,1.213-0.809,0.46-2.064c0.427-0.065,0.805,0.732,1.341,0.991c-0.86-2.611-0.593-2.14-1.882-4.671l1.06-0.684
						c-1.142,0.256-2.181-1.771-3.026-3.488c-0.534,0.004-1.001-0.004-1.231,0.048c0,0-0.125-0.539-0.25-1.081
						c-0.131-0.544-0.263-1.088-0.263-1.088c0.245-0.054,0.69,0.428,1.224,1.087c-0.099-0.19-0.197-0.375-0.29-0.529
						c0.568-0.27,1.313,0.568,2.019,1.513c-0.289,0.028-0.596,0.043-0.903,0.051c0.767,0.969,1.621,1.974,2.425,2.423
						c-0.142-0.216-0.247-0.518-0.291-0.801c0.209,0.26,0.398,0.465,0.539,0.506c0.15,0.038-0.121-0.339-0.436-0.852l1.552,0.626
						l-0.589-0.498l1.199-1.613c-1.338-2.623-3.409-5.484-3.758-8.419c1.05,1.356,1.796,1.314,3.107,2.204
						c-1.465-0.21,0.368,2.357-0.064,3.495c0.224-0.593,0.832-0.028,1.031,0.292l-0.997-3.188c1.067,0.754,0.864,0.027,1.363-0.312
						c-2.166-0.907-1.25-2.694-1.811-4.081c0.719,0.397,1.425,1.097,1.144,2.173c1.719-0.282-2.339-3.29-0.861-3.697
						c-0.009,0.299-0.134,0.385,0.219,0.73c-0.571-1.078,0.083-2.405,0.668-1.625l-0.012,0.298c0.458-1.741,0.473-5.895-1.307-7.284
						c0.234,0.123,2.16,1.593,2.518,1.937c0,0-1.458-1.798-2.918-3.597c-1.46-1.783-2.92-3.564-2.92-3.564
						c1.531,1.246,5.314,2.311,6.076,4.457c0.254-0.329,0.554-0.749,0.074-2.06c-0.242,0.186-2.303-0.566-2.413-1.082
						c1.802-0.148,0.97-0.27,2.52-0.869c-0.355,0.282-2.767-1.704-2.652-2.408c0.358,0.333,2.408,1.363,2.648,1.791l-2.299-3.298
						c0.408,0.722,2.023,1.276,2.72,1.249c-0.478-0.078,0.123-1.612-0.088-2.254l-0.595,0.479c0.466-1.928-3.253-4.043-3.077-6.092
						c0.487,0.537,3.027,2.374,3.357,1.454c-1.213-1.203-5.844-5.536-6.739-7.908l0.711,0.032l-0.762-1.867
						c1.823,1.892,5.644,6.569,7.118,8.821c0.576-0.496,0.832,0.241,0.801-1.011c0.669-0.062,0.979,1.223,1.009,1.604l0.5-2.603
						c-1.438-0.67-1.38-2.961-2.578-3.505l1.406,3.888c-1.436-0.678-4.011-4.025-3.723-5.867c0.577-0.192,2.545,1.775,3.022,1.996
						c-0.489-0.528-0.913-2.404-0.56-2.395l0.753,1.263c0.556-0.813-1.871-2.846-0.482-3.429c0.101-0.408,1.862-0.373,1.017-0.913
						c-1.644-0.137-6.702-2.751-7.924-3.919c0.113-0.1,1.592-1.556,2.405-1.645c1.292-0.063,3.042,2.794,4.149,2.746
						c-0.391-0.24-0.868-0.921-1.021-1.181c0.339-0.304,1.209,0.858,1.046-0.291c-1.448-0.959,0.142-2.08-1.222-1.161
						c-0.407-1.255,0.305-0.937,0.25-2.184c-0.94-0.119-3.188-2.801-3.596-4.048c0.369,0.257,0.851,0.282,1.071,0.287
						c0.14-2.042,0.788-2.838,0.8-4.81c0.351,0.002,0.774-0.734,1.4-0.001c-0.256-0.418-0.754-0.939-0.796-1.573
						c1.241-0.542,0.212,1.475,1.71,1.348c-0.845-0.516-1.184-2.198-1.722-3.343c-1.301-0.398-0.225,1.892,0.312,3.044
						c-1.799-0.933-3.7-3.429-4.557-5.911c-0.466-1.865,1.154-0.12,0.895-0.535c0.257-2.939-3.198-4.205-1.958-6.117
						c1.121-0.455,2.276,1.073,3.097,1.253c0.467,1.564-0.677,1.712-0.609,2.646l0.516-0.854c0.39,0.617,0.701,1.665,0.381,1.99
						c1.011-0.346,0.08-5.159,0.916-7.141c-0.4-0.615-0.826-1.546-1.272-1.412l0.189,0.841c-0.896,0.261-1.331-2.043-1.725-1.281
						c-0.682-1.33-1.754-2.945-1.316-4.143l1.29,0.329c-0.379-0.143-0.726,0.585-0.307,1.176c-0.61-0.864,1.645-1.41-0.098-2.849
						l-0.849,0.599c-0.718-1.332-2.146-3.206-1.835-4.297c-1.249,0.007,0.174,0.363-1.279,0.589
						c1.831,0.062,0.095,3.194,1.997,2.838c-1.698,0.124-0.655,1.261-2.083,1.768c0.427,0.164,0.807-0.04,0.641,0.917
						c0.128,0.106,0.292,0.294,0.388,0.41c-0.011,0.026-0.016,0.034-0.029,0.056c0.018-0.012,0.032-0.021,0.049-0.034
						c0.066,0.076,0.081,0.086,0.018-0.014c0.178-0.162,0.396-0.26,0.634-0.229c1.009,0.988,1.042,2.664,1.574,3.48
						c-0.18,0.533-0.504-0.501-0.949-0.377l0.798,1.221c-0.955-0.375-1.526,0.899-2.142-0.849l0.007,1.307
						c-0.513,0.517-0.704,1.478-0.284,2.337c-0.192,0.519,1.096,2.102,0.334,1.185l0.643,2.372l-0.239-0.102
						c-0.103,1.971,1.648,5.026-0.077,6.454c0.243,0.81,0.539,1.674,0.27,2.678l-0.827-0.215c0.296,1.034-0.834,2.194,0.025,3.031
						c-2.232-0.246-0.511,3.99-0.93,5.32l1.079,0.645c-0.075,1.029,0.224,2.212,0.637,3.771l0.957,0.44
						c0.766,1.567-0.726,2.559-0.657,4.413c-0.362-0.321-0.261-0.728-0.034-0.93c-2.196,0.952,1.457,5.341-0.161,6.392
						c0.335,0.675,0.207,0.953-0.042,1.152c0-0.046-0.018-0.097-0.046-0.147c-0.013,0.043-0.018,0.113-0.018,0.189
						c-0.17,0.117-0.366,0.225-0.525,0.373c0.237-0.067,0.434-0.15,0.525-0.266c0.011,0.379,0.114,1.006,0.339,1.691l-1.035-0.358
						c0.012,0.052,0.009,0.086,0.024,0.142c-0.405,0.312,0.464,0.706,1.248,0.868c0.157,0.37,0.347,0.735,0.585,1.074
						c-1.676-0.528,0.487,1.749-1.307,1.308c0.843,0.868,0.516,3.101,2.31,4.468c-0.236-0.121-0.356-0.027-0.356-0.331
						c-0.237,0.484-0.471,0.966,0.012,1.816l-1.315-0.525l1.663,2.366c-0.85,0.316-1.334,0.361-2.278-1.031
						c1.404,2.835,0.47,1.891,1.881,4.448l-0.835-0.598c-0.01,0.598,1.052,2.222,0.331,2.141c-1.65,0.317-0.778,6.213-2.552,8.535
						c2.536,0.98-1.264,0.79,0.627,2.162c-0.604-0.192-0.985,0.041-1.433-0.814c0.387,2.025-1.206,1.858,0.277,4.065
						c-0.606-0.202-0.815-0.922-1.181-0.984c0.111,0.217,0.448,0.859,0.081,0.8c-0.365-0.062-0.463-0.567-0.687-0.996
						c-0.092,1.739,1.684,3.117,3.355,4.374c-0.891,0.323-0.834,0.817,0.187,2.178c-0.591-0.077-1.232,0.021-1.291-1.148
						c-0.158,0.53-1.283,3.007,0.057,3.993c-0.366-0.052-0.209,0.747-0.073,1.009c-0.256,1.254-0.393,1.286-0.438,2.66l0.269-0.201
						c1.559,1.64,0.203,1.312,0.244,2.476l-0.164-0.146c-1.53,1.527,0.406,1.414-1.285,2.787l1.028,0.591
						c2.132,1.759-1.586,1.154-0.981,3.076l0.659-0.066c0.615,1.265-3.297-0.091-3.691,0.435c-0.217,0.021-0.26-0.469-0.361-0.791
						c-1.604,0.973,1.277,1.201,1.338,2.844c-0.755-0.256-1.749-1.651-2.045-0.797c-0.664,0.044,1.846,4.466,0.229,4.744
						c0.602,0.122,1.201,0.243,1.487,1.2c0.006,1.148-2.579,1.162-1.029,3.352c-0.172,0.015-0.325-0.044-0.463-0.141
						c0.299,1.095,0.27,3.039,1.108,4.202c-3.603-1.926,0.704,5.991-2.479,3.542l-0.312,2.456l-0.312-0.312
						c-0.526,1.317,0.11,2.42,0.761,3.534c-0.293,0.173-0.534-0.307-0.694-0.464c-1.121,1.654-1.033,1.966,0.144,5.015l-1.07-0.621
						c0.499,0.971-2.337,1.812-1.635,4.85c-0.112-0.112-0.301-0.313-0.405-0.595c0.32,1.653-0.722,2.496-1.415,3.39
						c-0.7,0.891-1.035,1.849,0.723,3.785l0.53,2.284c0.793-1.759,1.544,1.61,2.37,1.291c0.021,0.965-1.638,1.119-1.585-0.003
						l0.224,0.001c-1.854-1.935-1.313,1.918-2.624,0.784c-0.936,3.965-3.002,6.871-4.099,10.396l1.619,0.839l-0.435,1.189
						c-0.442,0.037-1.3-0.54-0.989-1.386c-0.982-0.24,0.298,2.103,0.617,2.402c-1.096,1.25-1.562-2.155-1.749-1.646l-0.091,0.825
						l0.224-0.017c0.448,1.106,1.089,1.71,0.704,2.716c-0.495,0.424-1.025-0.431-1.161-0.215c-0.105-0.091-0.181-0.043-0.159,0.373
						l-0.581,1.461l1.365,0.374c0.384,1.19-0.487,1.427,1.063,1.837c-1.188-0.343-1.796,0.967-2.21,2.377
						c-0.425,1.427-0.671,2.957-1.078,3.025c0.591,1.727,0.295,2.697-0.132,3.836c0.328-0.102,1.715,0.823,1.268,1.739
						c-2.658-2.66-1.714,0.944-3.923,0.156c1.519,0.332-0.47,3.245,1.719,3.601c-0.458,0.686-1.049-0.802-1.875-0.678
						c0.514,2.965-1.934,3.943-2.315,6.694c0.348,0.349,1.026,0.413,1.396,1.398l-2.199-0.277c0.021,0.625,1.933,2.268,0.399,2.029
						c0.342,0.146,0.858,0.367,0.862,0.783c-1.66,1.573-2.174,4.177-3.005,6.521c-0.2,0.592-0.453,1.125-0.716,1.652
						c-0.264,0.524-0.563,1.013-0.949,1.393c-0.378,0.392-0.803,0.727-1.3,0.967c-0.522,0.202-1.11,0.315-1.779,0.309
						c0.953,0.272,0.799,0.657,0.569,1.053c0.312-0.06,0.79,0.958,1.258,1.435c0,0-0.559,0.029-1.151-0.02
						c-0.577-0.039-1.155-0.079-1.155-0.079c0.477,0.858,0.216,1.294-0.102,1.597c-0.308,0.322-0.607,0.622-0.142,1.432l0.206-0.646
						c0.372,1.123,1.255,1.927,2.277,2.703c0.51,0.39,1.051,0.773,1.566,1.2c0.506,0.414,0.986,0.877,1.386,1.449
						c-0.434-1.337,0.516-1.087,1.464-1.041c0.481,0.033,0.926-0.015,1.175-0.313c0.251-0.296,0.308-0.842-0.03-1.825
						c0.568,0.128,0.401,0.913,0.925,1.235c-0.524-1.223-0.407-1.795,0.399-2.22l0.14,0.303c0.284-0.617,0.579-1.088,0.895-1.479
						c0.295-0.411,0.604-0.746,0.947-1.066c0.337-0.325,0.723-0.623,1.102-1.008s0.786-0.828,1.226-1.4l-1.03-0.702
						c0.385-0.475,0.74-0.314,1.086-0.381c-0.585-1.034-0.759-0.614-0.984-0.227c-0.224,0.389-0.47,0.764-1.119-0.307
						c1.14,0.546,1.575-0.525,2.012-1.536c0.459-1,0.868-1.978,2.079-1.261c0.348-0.958-1.207-0.713-0.861-1.666l0.69,0.28
						l-0.69-0.931c0.339-0.52,1.189-0.185,1.71,0.24c-0.11,0.104,0.002,0.57-0.008,0.775c0.976-0.214,0.505-2.571,0.827-2.655
						l-0.672,0.623c0.273-3.164,2-5.81,1.446-9.444l-0.514-0.183c-0.317-2.692,0.93-1.175,1.114-3.679l0.089,0.169
						c-0.343-0.81-0.42-1.579-0.209-2.127c0.393,0.989,1.322-0.161,1.728,1.047c-0.341-2.88-0.434-1.635-1.757-4.46l0.851,0.316
						c-0.559-1.054-0.912-1.4-0.796-2.623c0.398,1.417,1.355,0.308,1.935,2.004c2.307-0.769-0.713-4.748,2.015-3.708
						c-1.806-2.823-1.73,0.964-2.014,0c-0.826-0.101-1.326-2.193-0.911-2.72c0.254-0.679,3.044,1.058,3.527-0.797
						c-0.062,0.173,0.094,0.318,0.033,0.492c0.731-0.229-0.342-1.943,0.765-2.05c-1.144-1.537,0.375-1.027-1.213-2.524l-0.088,1.991
						c-0.161-1.308-1.819-3.788-0.464-4.576c0.296,0.395,0.599,1.22,0.751,1.741c0.606-0.058-0.075-1.146,0.55-1.209
						c1.592,1.495-0.21,2.33,0.75,4.389c0.823,0.084-0.646-2.914,0.976-0.928c-2.039-2.608,0.784-1.564-0.587-4.23l0.953,0.895
						c-0.1-0.324-0.447-1.114-0.322-1.453l1.083,1.704c-0.803-1.9,1.484-1.148,1.151-2.61c-0.512,2.058-1.296-0.516-2.242-0.252
						c-0.64-3.579,2.939,0.675,3.219-2.52c0.037,0.494-0.967,0.942-1.262-0.024c0.342-0.369,0.905-0.765,1.506-0.671
						c0.289-2.028-1.083-0.542-1.474-1.825c1.36,0.345-0.244-1.311-0.41-2.435l0.997,0.807c1.188-1.606-1.929-2.255-0.671-3.546
						l1.177,1.937l-0.104-1.292l1.083,1.127c-0.566-1.775-0.264-1.937,0.325-2.749c-0.765-0.32-1.773-1.603-1.567-2.572
						c0.755-0.167,0.856,1.125,1.053-0.33c0.549,0.805,1.248,1.77,0.183,1.613c0.31,0.321,0.55,0.804,0.855,1.125
						c0.858-0.146,0.597-1.626,0.712-2.118c-0.086,0.157-0.196,0.338-0.367,0.337l-0.907-3.067c0.449-0.009,0.692,0.478,0.93,0.957
						c-0.014-0.484-0.407-1.127-0.354-1.78c0.776,0.8,1.624,1.434,1.808,2.569l-0.454-2.595c0.383,0.156,1.201-0.19,1.442,0.292
						c0.725-0.666-0.964-3.8-0.015-4.687c-0.143-0.197-0.262-0.462-0.312-0.849c0.477-1.162,1.736-1.543,0.965-3.967l1.66,0.256
						c-0.062-1.475-2.11-0.24-2.21-2.689c-0.148-1.792,1.369,0.433,1.886,0.242c-0.587-1.294-1.832-3.697-0.363-4.112
						C481.738,328.746,481.449,328.925,481.474,329.419z M483.787,313.646c0.159,0.454,0.712,1.536,0.077,1.318
						C482.765,313.77,483.365,313.914,483.787,313.646z M484.873,288.041c0.312,0.456,0.103,0.702-0.329,0.845
						C484.494,288.538,484.569,288.233,484.873,288.041z M480.383,213.661c0.018,0.021,0.029,0.037,0.051,0.06
						C480.051,214.255,480.203,214.074,480.383,213.661z M480.783,212.353c-0.149-0.225-0.291-0.282-0.432-0.287
						c0.263,0.233,0.296,0.585,0.235,0.941C480.854,213.03,481.029,212.921,480.783,212.353z M462.104,362.8l0.33-0.029
						C462.56,363.57,462.348,363.196,462.104,362.8z"/>
					<path fill="#0600FF" d="M485.941,291.737c-0.185-0.029-0.378-0.135-0.571-0.243
						C485.525,291.73,485.723,291.868,485.941,291.737z"/>
					<path fill="#0600FF" d="M479.948,339.175c-0.011,0.01-0.011,0.027-0.021,0.037c0.056,0.072,0.112,0.134,0.17,0.188
						L479.948,339.175z"/>
					<path fill="#0600FF" d="M489.678,240.56c-0.151,0.234-0.341,0.307-0.538,0.317C489.392,241.031,489.605,241.004,489.678,240.56
						z"/>
					<path fill="#0600FF" d="M478.676,203.432l0.321,1.101c-0.077-0.498,0.139-0.564,0.289-0.729
						C479.046,203.717,478.709,203.745,478.676,203.432z"/>
					<path fill="#0600FF" d="M484.409,197.533c-0.138-0.201-0.042-0.322-0.183-0.522l-0.471-0.155
						C483.844,197.501,484.268,198.106,484.409,197.533z"/>
					<path fill="#0600FF" d="M482.036,204.064c0.856,0.31,0.536-0.445,0.33-1.216c0.006,0.044,0.017,0.086,0.009,0.125
						C481.156,202.229,481.601,203.147,482.036,204.064z"/>
					<path fill="#0600FF" d="M482.325,202.672c-0.056-0.234-0.095-0.465-0.068-0.658
						C481.768,201.719,482.175,202.232,482.325,202.672z"/>
					<path fill="#0600FF" d="M480.136,210.137c0.211-0.219-1.111-0.732-0.768-0.748
						C478.256,208.499,480.782,212.192,480.136,210.137z"/>
					<polygon fill="#0600FF" points="484.849,204.776 483.796,204.549 484.676,205.329 					"/>
					<path fill="#0600FF" d="M484.355,209.958c0,0,0.062-0.244,0.125-0.487c0.059-0.246,0.118-0.492,0.118-0.492
						c-0.178-0.067-0.29-0.258-0.38-0.47C484.226,209.186,484.041,209.836,484.355,209.958z"/>
					<path fill="#0600FF" d="M484.22,208.51c0.001-0.35-0.04-0.703-0.226-0.983C484.016,207.726,484.074,208.161,484.22,208.51z"/>
					<polygon fill="#0600FF" points="485.25,206.458 485.045,206.689 485.011,207.448 					"/>
					<path fill="#0600FF" d="M484.483,221.758l0.32,1.354c0.368,0.311,0.588,0.098,0.438-0.424
						C484.982,222.271,484.835,221.754,484.483,221.758z"/>
					<path fill="#0600FF" d="M487.34,219.58c-0.215,0.218-0.452,0.121-0.8,0.13l1.324,0.699L487.34,219.58z"/>
					<path fill="#0600FF" d="M487.715,223.275c0.369,0.307,1.076,2.296,0.973,0.717
						C488.323,223.683,488.004,222.316,487.715,223.275z"/>
					<polygon fill="#0600FF" points="486.026,240.43 486.014,240.12 483.843,238.982 					"/>
					<path fill="#0600FF" d="M490.882,259.112c0.561-1.12-1.329-1.104-0.646-2.013c-0.503-0.624-0.556,0.744-0.989,0.149
						C489.769,258.414,489.436,258.68,490.882,259.112z"/>
					<path fill="#0600FF" d="M489.245,257.249c-0.081-0.186-0.182-0.389-0.317-0.624
						C489.056,256.949,489.156,257.126,489.245,257.249z"/>
					<polygon fill="#0600FF" points="445.479,403.944 444.695,403.844 445.55,404.387 					"/>
					<path fill="#0600FF" d="M445.932,406.501l-1.184-1.443l0.714,1.649C445.515,406.542,445.612,406.228,445.932,406.501z"/>
					<path fill="#0600FF" d="M486.928,313.334l-0.317-0.302c-0.377-0.128-0.437,0.047-0.56,0.397L486.928,313.334z"/>
					<polygon fill="#0600FF" points="483.854,323.805 483.919,323.633 482.623,323.066 					"/>
					<path fill="#0600FF" d="M483.501,334.264c0.136-0.334-0.04-0.986,0.088-1.328C483.643,333.936,481.951,333.184,483.501,334.264
						z"/>
				</g>
			</g>
		</g>
	</g>
</g>
</svg>
