<?xml version="1.0" encoding="utf-8"?>
<!-- Generator: Adobe Illustrator 16.0.0, SVG Export Plug-In . SVG Version: 6.00 Build 0)  -->
<!DOCTYPE svg PUBLIC "-//W3C//DTD SVG 1.1//EN" "http://www.w3.org/Graphics/SVG/1.1/DTD/svg11.dtd">
<svg version="1.1" id="Layer_1" xmlns="http://www.w3.org/2000/svg" xmlns:xlink="http://www.w3.org/1999/xlink" x="0px" y="0px"
	 width="383px" height="286px" viewBox="0 0 383 286" enable-background="new 0 0 383 286" xml:space="preserve">
<g>
	<g>
		<g>
			<g>
				<g>
					<path d="M245.111,126.034c0.172,0.22,0.396-0.146,0.479-0.17C245.194,125.604,245.043,126.12,245.111,126.034z"/>
					<polygon points="241.187,123.514 241.363,123.448 240.593,123.279 					"/>
					<path d="M238.101,120.571c-0.195,0.796,1.203,0.976,1.582,1.682l-0.021,0.203l0.646-0.18
						C239.572,121.707,238.438,121.162,238.101,120.571z"/>
					<path d="M237.49,117.876c-0.087,0.302-0.522-0.164,0.33,0.429c-0.018-0.058-0.017-0.081-0.023-0.118
						C237.727,118.126,237.635,118.038,237.49,117.876z"/>
					<path d="M237.797,118.187C238.14,118.482,237.74,117.812,237.797,118.187L237.797,118.187z"/>
					<path d="M236.141,116.901l0.611,0.215c0.018-0.205-0.354-0.587-0.126-0.543C236.078,116.264,236.063,116.469,236.141,116.901z"
						/>
					<path d="M235.371,116.911l0.3,0.128C235.678,116.952,235.633,116.879,235.371,116.911z"/>
					<path d="M236.308,117.312l-0.637-0.273c-0.013,0.143-0.161,0.32,0.277,0.141C235.767,117.301,235.999,117.236,236.308,117.312z
						"/>
					<path d="M236.51,117.639c0.144,0.338,0.397,0.697-0.213,0.481C237.208,118.807,237.425,118.327,236.51,117.639z"/>
					<path d="M237.438,120.96l0.179,0.456l0.442,0.088C237.839,121.46,237.57,120.779,237.438,120.96z"/>
					<path d="M233.621,114.143c-0.128,0.089-0.118,0.438-0.213,0.614l0.442,0.163C233.751,114.691,233.495,114.333,233.621,114.143z
						"/>
					<path d="M233.408,114.757l-0.665-0.239C233.167,114.925,233.323,114.909,233.408,114.757z"/>
					<polygon points="234.763,117.429 235.932,117.742 234.604,117.295 					"/>
					<polygon points="231.712,112.489 232.227,112.465 231.372,112.437 					"/>
					<path d="M230.395,111.452c0.398-0.043,0.026-0.624,0.365-0.571c-0.382-0.256-0.839-0.315-1.249-0.369
						C229.874,110.656,230.157,110.938,230.395,111.452z"/>
					<path d="M228.849,110.391c0.191,0.061,0.419,0.086,0.662,0.121C229.318,110.435,229.107,110.385,228.849,110.391z"/>
					<path d="M231.938,113.735c0.021-0.103,0.103-0.348-0.113-0.665l-0.08,0.492C231.803,113.615,231.869,113.675,231.938,113.735z"
						/>
					<path d="M231.741,113.579l0.003-0.016c-0.207-0.191-0.351-0.324-0.411-0.38C231.384,113.232,231.507,113.352,231.741,113.579z"
						/>
					<path d="M231.986,113.779c-0.019-0.016-0.031-0.028-0.049-0.044C231.929,113.783,231.931,113.803,231.986,113.779z"/>
					<path d="M233.741,115.993c-0.445-0.079-1.211-0.421-0.875,0.37C233.266,116.327,233.071,115.875,233.741,115.993z"/>
					<path d="M231.882,114.391l0.467,0.525c0.064-0.094,0.076-0.299,0.3-0.265L231.882,114.391z"/>
					<polygon points="231.532,114.273 231.882,114.391 231.708,114.196 					"/>
					<path d="M229.516,111.47c-0.351-0.052-0.61-0.256-0.917-0.471c0.255,0.32,0.539,0.625,0.84,0.877
						C229.566,111.809,229.853,111.736,229.516,111.47z"/>
					<path d="M230.573,112.524c-0.021-0.008-0.046-0.018-0.066-0.025C230.515,112.553,230.532,112.583,230.573,112.524z"/>
					<polygon points="225.722,108.704 225.72,108.801 225.776,108.752 					"/>
					<path d="M229.438,111.981c0.176,0.258,0.38,0.293,0.595,0.304c-0.198-0.113-0.398-0.246-0.595-0.408
						C229.381,111.907,229.352,111.935,229.438,111.981z"/>
					<path d="M227.917,109.904c0.066,0.167,0.158,0.337,0.261,0.508C228.143,110.211,228.03,109.852,227.917,109.904z"/>
					<path d="M230.506,112.343c0.016,0.005,0.031,0.008,0.046,0.015C230.536,112.224,230.517,112.266,230.506,112.343z"/>
					<path d="M230.506,112.343c-0.158-0.053-0.319-0.051-0.473-0.058c0.161,0.092,0.32,0.167,0.474,0.214
						C230.498,112.452,230.499,112.393,230.506,112.343z"/>
					<path d="M223.168,110.177c0.282-0.281,1.121-0.082,1.386,0.672c0.702,0.18,1.176-1.108,1.166-2.047
						c-0.123,0.123-0.223,0.248-0.906,0.003c0.057,0.321,0.883,1.349,0.207,1.269c-0.837-0.405-0.496-0.574-0.714-1.015
						c-0.011,0.625-1.342-0.155-1.633,0.55l0.778,0.289C223.394,109.995,223.06,109.958,223.168,110.177z"/>
					<path d="M226.726,109.654l0.254,0.139c-0.211-0.256-0.294-0.524-0.438-1.034c-0.491-0.145-0.659-0.09-0.766-0.007l1.062,0.917
						L226.726,109.654z"/>
					<path d="M227.98,110.588c-0.447,0.195-1.095-0.086-1.062,0.536c0.668,0.494,0.682,0.083,1.189,0.249
						c-1.119-0.755,0.455,0.055-0.151-0.74c0.254,0.108,0.454,0.239,0.642,0.366c-0.156-0.191-0.299-0.388-0.421-0.587
						c0.003,0.016,0.005,0.027,0.007,0.041l0.006,0.002l-0.005,0.004c0.012,0.078,0.006,0.115-0.026,0.05
						c-0.007,0.001-0.021-0.007-0.027-0.011c-0.045,0.041-0.098,0.066-0.15,0.088c-0.249-0.312,0.022-0.125,0.15-0.088
						c0.017-0.013,0.038-0.023,0.054-0.04l-0.001-0.007l-1.205-0.659C227.165,110.018,227.452,110.231,227.98,110.588z"/>
					<path d="M231.724,116.582c-0.006-0.056,0.016-0.078,0.034-0.104C231.659,116.46,231.611,116.465,231.724,116.582z"/>
					<path d="M231.484,116.023c0.113,0.017,0.288-0.061,0.493,0.185c0.119,0.28-0.137,0.154-0.22,0.271
						c0.217,0.041,0.699,0.212,0.394-0.344l-0.108-0.019c-0.301-0.472-0.486-1.317-0.373-1.304
						C231.536,115.206,231.461,115.504,231.484,116.023z"/>
					<path d="M229.652,113.365l-0.986-0.56l0.193,0.653l0.122-0.19C229.407,113.746,229.481,113.446,229.652,113.365z"/>
					<polygon points="225.753,108.455 226.151,108.19 225.245,108.29 					"/>
					<polygon points="224.574,107.586 224.858,107.306 224.406,107.259 					"/>
					<path d="M147.348,88.683l-0.309,0.143C147.187,88.777,147.28,88.73,147.348,88.683z"/>
					<path d="M149.654,88.553l0.045-0.197C149.599,88.468,149.56,88.548,149.654,88.553z"/>
					<path d="M193.223,89.853c-0.326-0.517-0.646-1.249-0.741-0.809l-0.007,0.46C192.82,89.551,193.048,89.688,193.223,89.853z"/>
					<path d="M168.811,86.74l0.124,0.149c0.13-0.133,0.252-0.257,0.364-0.371C169.15,86.585,168.985,86.661,168.811,86.74z"/>
					<path d="M168.29,88.482c0,0-0.145-0.089-0.29-0.179c-0.145-0.091-0.293-0.167-0.293-0.167
						C167.836,88.24,168.024,88.355,168.29,88.482z"/>
					<path d="M134.926,90.812l-0.279,0.51C135.213,91.201,134.922,91.034,134.926,90.812z"/>
					<path d="M212.111,99.195c-0.267-0.366-0.513-0.603-0.75-0.775C211.661,98.9,211.811,99.433,212.111,99.195z"/>
					<path d="M147.93,84.003c-0.197,0.098-0.276,0.194-0.264,0.29C147.869,84.199,147.98,84.105,147.93,84.003z"/>
					<path d="M210.317,97.808c0.043,0.074,0.095,0.128,0.142,0.196c0.307,0.083,0.602,0.19,0.902,0.416
						C211.144,98.058,210.83,97.746,210.317,97.808z"/>
					<path d="M90.15,103.831c-0.038-0.011-0.081-0.011-0.116-0.026C90.035,103.865,90.083,103.856,90.15,103.831z"/>
					<path d="M76.173,100.688c0.13-0.022,0.341-0.016,0.541-0.015C76.617,100.641,76.454,100.638,76.173,100.688z"/>
					<path d="M219.941,103.922C220.216,104.075,220.01,103.911,219.941,103.922L219.941,103.922z"/>
					<path d="M220.156,106.205c-0.081,0-0.157,0.021-0.222,0.098C220.016,106.233,220.089,106.205,220.156,106.205z"/>
					<path d="M206.301,98.648l-0.022-0.014C206.317,98.753,206.312,98.731,206.301,98.648z"/>
					<path d="M220.209,104.354c-0.062-0.113-0.145-0.23-0.249-0.337C219.994,104.081,220.07,104.183,220.209,104.354z"/>
					<path d="M220.277,104.15c0.077,0.078,0.137,0.138,0.194,0.196C220.546,104.311,220.544,104.253,220.277,104.15z"/>
					<path d="M219.569,103.696c0.151,0.095,0.276,0.206,0.391,0.322c-0.033-0.059-0.04-0.093-0.019-0.096
						C219.863,103.874,219.753,103.807,219.569,103.696z"/>
					<path d="M113.99,95.148c-0.024-0.006-0.049-0.006-0.076-0.016C113.687,95.408,113.804,95.334,113.99,95.148z"/>
					<path d="M184.26,91.637c0.015-0.001,0.025-0.01,0.039-0.012L184.26,91.6V91.637z"/>
					<path d="M183.133,91.688c0.583-0.411,0.822-0.283,1.127-0.089l-0.012-1.292L183.133,91.688z"/>
					<path d="M141.856,89.355c0,0,0.199,0.07,0.398,0.141c0.199,0.079,0.398,0.157,0.398,0.157c-0.825,0.723-1.489,0.64-0.728,1.066
						c-0.069-1.404,2.872-0.428,2.834-1.798l0.523,0.236c-0.143,0.001-0.158,0.083-0.299,0.083c1.022,0.555,0.621-1.046,1.888-0.975
						c0.443,0.062,0.76,0.229,0.478,0.418l0.941-0.429c0.283-0.001,0.23,0.241-0.051,0.242c0,0,0.366-0.063,0.735-0.098
						c0.368-0.042,0.736-0.083,0.736-0.083l-0.009,0.04c0.198-0.221,0.661-0.569,0.889-0.718c0.387,0.18-0.183,0.151-0.077,0.317
						l0.807-0.361c0.349,0.338-0.316,0.707-0.883,0.679c0.827,1.324,0.666-0.368,2.344,0.357l-0.764,0.203
						c0.522,0.75,1.111,0.447,1.985,0.893c-0.205-0.243-1.767-1.141-0.892-1.514c0.253,0.092,0.583,0.128,1.058-0.165
						c0.014,0.491,0.478,0.327,1.062,0.313l-0.034,0.639c0.628-0.173,0.577-0.5,0.949-0.781c0.706,0.075,0.849,0.573,1.01,0.994
						c1.123,0.121-0.771-0.808,0.565-0.905c0.936,0.261,1.596,0.011,2.739-0.353c0.651,0.231-0.13,0.389,0.099,0.576l0.604-0.5
						c0.143,0.015,0.089,0.17,0.062,0.249c0.501-0.177,0.069-0.64,0.854-0.759c0.252-0.688,1.53,1.146,2.539,0.418
						c0.223,0.199-0.143,0.383-0.088,0.635c1.351-0.426,1.151-0.297,2.297-0.921l0.882,0.486c-0.631-0.522,0.292-1.051,1.104-1.396
						c-0.216-0.262-0.402-0.491-0.532-0.605l1.263-0.182c0.136,0.124-0.013,0.326-0.244,0.565c0.089-0.042,0.174-0.083,0.242-0.124
						c0.41,0.292,0.138,0.629-0.213,0.943l-0.393-0.449c-0.344,0.347-0.667,0.739-0.644,1.119c0.086-0.063,0.243-0.106,0.413-0.12
						c-0.089,0.095-0.149,0.182-0.12,0.25c0.033,0.072,0.174-0.052,0.389-0.188l0.192,0.744l0.099-0.273l1.509,0.647
						c0.605-0.283,1.191-0.654,1.859-0.961c0.67-0.315,1.421-0.553,2.339-0.512c-0.532,0.431-0.238,0.824-0.368,1.43
						c-0.186-0.369-0.542-0.366-0.959-0.308c-0.422,0.081-0.905,0.22-1.356,0.094c0.471,0.131,0.321,0.409,0.184,0.495
						c0,0,0.433-0.094,0.865-0.188c0.434-0.098,0.864-0.154,0.864-0.154c-0.12,0.493,0.283,0.44,0.671,0.728
						c-0.15-1.048,1.331-0.426,2.055-0.602c-0.023,0.338-0.248,0.645-1.041,0.412c0.747,0.909,1.378-0.936,2.136-0.14
						c-0.2-0.029-0.297-0.101-0.409,0.052c0.523-0.205,1.609,0.242,1.279,0.477l-0.199-0.03c1.28,0.392,3.937,0.979,4.355,0.195
						c-0.016,0.109-0.431,0.949-0.551,1.096c0,0,0.764-0.546,1.528-1.093c0.775-0.556,1.555-1.056,1.555-1.057
						c-0.401,0.641-0.112,2.55-1.28,2.622c0.275,0.191,0.613,0.427,1.323,0.377c-0.175-0.164-0.22-1.175,0.084-1.15
						c0.549,1.023,0.421,0.587,1.173,1.548c-0.264-0.246,0.419-1.233,0.906-1.043c-0.129,0.139-0.302,1.09-0.517,1.148l1.569-0.689
						c-0.371,0.097-0.351,0.889-0.181,1.275c-0.055-0.251,1.045,0.342,1.393,0.376l-0.421-0.436c1.291,0.665,1.867-0.99,3.211-0.424
						c-0.248,0.155-0.904,1.188-0.274,1.575c0.505-0.409,2.407-2.097,3.782-1.977l0.103,0.404l1.063,0.055
						c-0.919,0.538-3.191,1.533-4.317,1.903c0.409,0.431-0.002,0.414,0.763,0.667c0.15,0.385-0.583,0.282-0.81,0.217
						c0,0,0.417,0.209,0.835,0.418c0.408,0.229,0.816,0.458,0.816,0.458c0.181-0.655,1.569-0.05,1.727-0.593l-2.136-0.173
						c0.172-0.657,1.81-1.291,3.006-0.639c0.205,0.382-0.714,0.995-0.775,1.212c0.249-0.144,1.337,0.102,1.383,0.3l-0.664,0.103
						c0.57,0.526,1.479-0.331,2.025,0.615c0.259,0.177,0.448,1.192,0.667,0.856c-0.113-0.914,0.807-3.107,1.364-3.472
						c0.079,0.097,1.169,1.403,1.317,1.9c0.188,0.767-1.33,0.939-1.168,1.597c0.098-0.156,0.45-0.233,0.588-0.246
						c0.221,0.285-0.375,0.448,0.292,0.688c0.414-0.555,1.258,0.692,0.561-0.364c0.709,0.136,0.594,0.453,1.333,0.789
						c-0.021-0.517,1.343-0.964,2.053-0.789c-0.119,0.132-0.09,0.407-0.073,0.534c1.221,0.756,1.736,1.401,2.894,2.058
						c0.029,0.194,0.465,0.714,0.085,0.819c0.224-0.003,0.491-0.108,0.848,0.094c0.366,0.923-0.821-0.403-0.675,0.522
						c0.247-0.312,1.179,0.091,1.805,0.189c0.17-0.615-1.087-0.815-1.708-0.911c0.429-0.727,1.754-0.942,3.161-0.525
						c1.064,0.416,0.121,0.718,0.351,0.72c1.703,1.227,2.326-0.285,3.44,1.212c0.273,0.838-0.572,0.905-0.661,1.313
						c-0.862-0.34-0.959-1.072-1.483-1.397l0.487,0.638c-0.335-0.017-0.909-0.24-1.109-0.538c0.236,0.691,2.869,2.057,3.947,3.32
						c0.339,0.014,0.854,0.14,0.787-0.168l-0.465-0.226c-0.139-0.62,1.141,0.053,0.723-0.477c0.747,0.133,1.637,0.225,2.277,0.996
						l-0.216,0.603c0.09-0.157-0.293-0.672-0.622-0.683c0.486,0.022,0.699,1.551,1.532,1.169l-0.293-0.746
						c0.738,0.164,1.821,0.156,2.4,0.826c0.05-0.716-0.201-0.063-0.269-0.995c-0.102,1.022-1.761-1.351-1.624-0.097
						c-0.019-1.037-0.67-0.93-0.923-1.99c-0.098,0.179,0.009,0.488-0.519-0.026c-0.061,0.028-0.167,0.043-0.232,0.05
						c-0.014-0.019-0.019-0.025-0.03-0.042l0.019,0.043c-0.043,0.006-0.049,0.01,0.007,0.016c0.088,0.175,0.139,0.345,0.118,0.471
						c-0.552,0.151-1.495-0.51-1.955-0.531c-0.3-0.321,0.281-0.089,0.211-0.398l-0.687-0.033c0.21-0.401-0.523-1.262,0.467-0.904
						l-0.746-0.534c-0.305-0.513-0.866-1.017-1.35-1.118c-0.304-0.327-1.177-0.199-0.672-0.283l-1.371-0.531l0.049-0.102
						c-1.187-0.795-2.854-0.926-3.84-2.446c-0.476-0.137-0.976-0.259-1.61-0.762l0.055-0.415c-0.603-0.183-1.429-1.249-1.854-1.023
						c-0.066-1.281-2.564-1.58-3.447-2.236l-0.262,0.437c-0.656-0.358-1.36-0.553-2.276-0.776l-0.138,0.429
						c-0.882,0.017-1.739-1.108-2.917-1.572c0.146-0.124,0.422,0.046,0.588,0.231c-0.988-1.542-3.188-0.603-4.199-1.733
						c-0.378,0.033-0.588-0.105-0.772-0.294c0.03,0.01,0.06,0.012,0.088,0.008c-0.031-0.018-0.079-0.037-0.13-0.054
						c-0.113-0.125-0.228-0.264-0.36-0.39c0.097,0.152,0.193,0.284,0.29,0.365c-0.25-0.083-0.643-0.171-1.046-0.202l0.008-0.511
						c-0.031-0.007-0.056-0.012-0.09-0.019c-0.3-0.302-0.365,0.107-0.297,0.52c-0.21,0.006-0.41,0.033-0.579,0.093
						c-0.035-0.841-1.036-0.117-1.179-1.015c-0.38,0.305-1.969-0.296-2.418,0.455c0.021-0.11-0.073-0.194,0.129-0.138
						c-0.382-0.221-0.768-0.442-1.206-0.328l0-0.641l-1.132,0.51c-0.442-0.528-0.614-0.809,0.061-1.092
						c-1.523,0.324-1.16-0.021-2.474,0.381l0.155-0.369c-0.411-0.087-1.186,0.265-1.35-0.113c-0.365-0.465-1.476-0.814-2.786-1.101
						c-1.315-0.27-2.808-0.566-3.933-1.135c0.263,1.236-1.015-0.725-1.256,0.15c-0.095-0.29-0.405-0.487,0.021-0.673
						c-1.262,0.108-1.779-0.674-2.726-0.029c-0.104-0.292,0.315-0.367,0.212-0.545c-0.106,0.046-0.421,0.187-0.527,0.007
						c-0.104-0.179,0.209-0.207,0.419-0.3c-1.264-0.118-1.49,0.709-1.673,1.489c-0.583-0.457-0.906-0.445-1.412,0.017
						c-0.19-0.287-0.529-0.606,0.252-0.6c-0.426-0.119-2.627-0.592-2.724,0.031c-0.123-0.172-0.604-0.092-0.724-0.027
						c-0.972-0.11-1.055-0.174-2.016-0.185l0.259,0.124c-0.424,0.742-0.803,0.113-1.579,0.148l0.026-0.077
						c-1.747-0.634-0.771,0.24-2.5-0.435l0.082,0.481c-0.187,1.028-1.531-0.635-2.557-0.258l0.364,0.28
						c-0.551,0.343-1.544-1.429-2.113-1.567c-0.124-0.092,0.192-0.141,0.363-0.205c-1.48-0.625-0.187,0.61-1.277,0.785
						c-0.208-0.331,0.248-0.872-0.494-0.906c-0.381-0.26-2.108,1.184-3.136,0.575c0.234,0.252,0.464,0.504-0.033,0.72
						c-0.764,0.134-2.162-0.923-2.807-0.029c-0.104-0.062-0.146-0.126-0.154-0.19c-0.577,0.269-1.896,0.537-2.208,1.016
						c-0.713-1.596-3.572,1.155-3.733-0.364c0,0-0.45,0.083-0.899,0.172c-0.449,0.089-0.897,0.179-0.897,0.179l0.026-0.162
						c-1.171,0.077-1.527,0.502-1.874,0.926c-0.282-0.062-0.11-0.232-0.1-0.315c-1.731-0.037-1.904,0.025-3.167,1.031l-0.235-0.457
						c-0.32,0.361-2.567-0.256-4.089,0.655c0.004-0.058,0.017-0.159,0.132-0.255c-1.714,0.9-4.729-0.278-4.947,1.644l-1.081,0.749
						c1.579-0.276-0.023,0.816,0.688,0.937c-0.572,0.262-1.706-0.108-0.987-0.396l0.141,0.056c0.022-0.979-2.007,0.19-2.145-0.436
						c-1.5,0.492-3.015,0.869-4.521,1.216c-0.752,0.178-1.499,0.355-2.237,0.531c-0.719,0.207-1.426,0.424-2.117,0.667l0.564,0.572
						l-0.972,0.312c-0.31-0.068-0.533-0.414,0.161-0.637c-0.501-0.257-1.029,0.748-0.993,0.904c-1.44,0.213,0.23-0.994-0.187-0.859
						l-0.539,0.256l0.155,0.034c-0.349,0.447-0.281,0.759-1.115,1.027c-0.57,0.054-0.422-0.326-0.635-0.278
						c-0.017-0.049-0.094-0.047-0.319,0.093l-1.221,0.376l0.678,0.369c-0.435,0.46-1.141,0.382-0.363,0.795
						c-1.157-0.652-4.606,1.291-5.213,1.137c-0.611,0.65-1.355,0.894-2.287,1.155c0.265,0.037,0.605,0.608-0.213,0.8
						c-0.124-1.369-1.629-0.057-2.558-0.814c0.76,0.443-2.207,0.81-1.051,1.417c-0.695,0.09-0.181-0.47-0.772-0.625
						c-0.716,0.472-1.606,0.671-2.557,0.781c-0.955,0.088-1.958,0.143-2.918,0.454c0.007,0.179,0.396,0.366,0.029,0.719l-1.22-0.622
						c-0.368,0.168-0.157,1.088-0.985,0.631c0.128,0.13,0.323,0.326,0.069,0.421c-1.018-0.063-2.009,0.022-2.999,0.173
						c-0.495,0.075-0.99,0.167-1.485,0.264c-0.494,0.109-0.992,0.195-1.495,0.23c-1.002,0.102-2.013,0.182-3.023,0.151
						c-1.009-0.025-2.019-0.151-3.003-0.629c0.533,0.36,0.178,0.381-0.234,0.379c0.267,0.091-0.008,0.435,0.042,0.675l-1.657-0.72
						c-0.331,0.65-1.786-0.016-2.002,0.609l0.539-0.096c-0.764,0.721,0.904,1.691,0.766,2.645c0.841-0.82,2.162,1.332,3.534,0.162
						c0.301,0.206-0.254,0.3-0.09,0.528c0.343-0.381,0.751-0.517,1.528-0.374l-0.084,0.107c1.083-0.116,1.859-0.088,2.679-0.017
						c0.411,0.04,0.832,0.081,1.303,0.126c0.475,0.054,1,0.089,1.613,0.048l-0.234-0.444c0.525-0.015,0.653,0.116,0.912,0.197
						c0.503-0.802-1.462,0.18-1.014-0.688c0.806,0.853,3.633-0.534,4.284,0.474c0.804-0.117-0.332-0.504,0.469-0.62l0.267,0.259
						l0.13-0.406c0.523-0.055,0.857,0.249,0.927,0.49c-0.132,0-0.342,0.151-0.474,0.203c0.743,0.188,1.87-0.55,2.123-0.492
						l-0.796-0.005c1.045-0.381,2.242-0.628,3.422-0.913c1.17-0.307,2.294-0.726,3.225-1.301l-0.216-0.17
						c1.418-0.852,1.311-0.114,2.938-0.817l-0.044,0.071c0.265-0.324,0.673-0.581,1.136-0.71c-0.339,0.391,0.948,0.217,0.488,0.678
						c1.505-0.977,0.707-0.606,1.521-1.758l0.37,0.266c0.259-0.441,0.231-0.619,1.026-0.988c-0.574,0.529,0.716,0.354,0.094,1.009
						c2.005,0.161,2.281-1.691,3.474-0.856c0.44-1.251-1.681,0.003-1.313-0.364c-0.483-0.182,0.392-0.958,0.965-1.056
						c0.555-0.176,1.38,0.897,2.757,0.377c-0.14,0.045-0.122,0.122-0.261,0.167c0.61,0.059,0.884-0.701,1.661-0.533
						c0.14-0.712,0.83-0.267,0.659-1.047l-1.194,0.634c0.641-0.456,0.994-1.573,2.323-1.583c-0.037,0.184-0.314,0.51-0.515,0.708
						c0.422,0.094,0.608-0.388,1.046-0.294c0.167,0.783-1.47,0.724-2.026,1.572c0.482,0.179,1.247-1.069,1.157-0.123
						c0.179-1.228,1.396-0.366,2.041-1.49l0.099,0.469c0.122-0.125,0.351-0.447,0.625-0.535l-0.282,0.759
						c0.577-0.781,1.595-0.044,2.215-0.554c-1.494,0.497-0.522-0.432-1.273-0.554c1.659-1.203,1.472,0.829,3.464-0.053
						c-0.258,0.154-1.14,0.068-0.769-0.282c0.425-0.035,1.001-0.03,1.317,0.13c1.342-0.538-0.355-0.398,0.143-0.866
						c0.639,0.401,0.607-0.443,1.161-0.817l0.142,0.461c1.677-0.144,0.141-1.083,1.688-1.111l-0.428,0.806l0.703-0.366l-0.007,0.57
						c0.705-0.609,0.989-0.576,1.824-0.639c-0.272-0.279-0.118-0.875,0.589-1.079c0.555,0.149-0.158,0.517,0.83,0.182
						c-0.154,0.354-0.308,0.787-0.854,0.472c-0.005,0.164-0.147,0.353-0.154,0.515c0.599,0.181,1.317-0.273,1.678-0.375
						c-0.144,0.02-0.316,0.039-0.417-0.005c0,0,0.322-0.259,0.645-0.518c0.322-0.268,0.654-0.498,0.654-0.498
						c0.273,0.128,0.123,0.308-0.026,0.485c0.285-0.113,0.441-0.372,0.87-0.505c-0.026,0.406,0.09,0.795-0.483,1.104l1.296-0.716
						c0.131,0.147,0.815,0.308,0.665,0.487c0.814,0.065,1.737-1.142,2.823-1.06c0.039-0.086,0.132-0.18,0.34-0.281
						c0.981-0.125,1.926,0.264,2.99-0.457l0.761,0.595c0.878-0.296-1.021-0.739,0.446-1.232c1.037-0.386,0.484,0.532,0.885,0.668
						c0.478-0.417,1.307-1.323,2.366-0.839C142.422,89.338,142.152,89.25,141.856,89.355z M153.087,88.203
						c-0.216,0.11-0.642,0.439-0.811,0.161C152.506,87.802,152.71,88.059,153.087,88.203z M170.376,87.879
						c-0.183,0.137-0.424,0.026-0.688-0.192C169.9,87.674,170.132,87.723,170.376,87.879z M216.898,102.319
						c-0.012,0.001-0.021,0.002-0.032,0.006C216.552,101.883,216.659,102.046,216.898,102.319z M217.649,103.085
						c0.126,0.004,0.157-0.056,0.158-0.136c-0.129,0.059-0.329-0.067-0.531-0.247C217.267,102.849,217.33,102.998,217.649,103.085z
						 M109.809,93.224l0.231,0.05C109.664,93.559,109.74,93.398,109.809,93.224z"/>
					<path d="M168.356,88.281c-0.053-0.089-0.061-0.181-0.066-0.273C168.196,88.077,168.185,88.17,168.356,88.281z"/>
					<path d="M134.979,90.718l-0.035,0.002c-0.013,0.032-0.018,0.063-0.018,0.092L134.979,90.718z"/>
					<path d="M201.797,98.438c-0.155-0.155-0.221-0.287-0.249-0.403C201.484,98.136,201.525,98.267,201.797,98.438z"/>
					<path d="M222.667,105.658l-0.617-0.301c0.276,0.175,0.308,0.33,0.395,0.489C222.499,105.747,222.492,105.539,222.667,105.658z"
						/>
					<path d="M225.437,111.568c0.112,0.014,0.164,0.123,0.276,0.135l0.12-0.191C225.501,111.267,225.162,111.228,225.437,111.568z"
						/>
					<path d="M222.208,107.314c-0.2,0.356,0.218,0.495,0.64,0.713c-0.023-0.016-0.047-0.029-0.066-0.049
						C223.235,107.608,222.72,107.46,222.208,107.314z"/>
					<path d="M222.943,108.081c0.127,0.071,0.252,0.15,0.354,0.25C223.479,108.182,223.185,108.188,222.943,108.081z"/>
					<path d="M218.904,103.616c0.125,0.212,0.414-0.345,0.424-0.138C219.83,103.195,217.735,103.146,218.904,103.616z"/>
					<polygon points="221.709,108.607 221.876,108.108 221.424,108.276 					"/>
					<path d="M218.978,106.126l0.517,0.555c0.04-0.075,0.145-0.059,0.26-0.02C219.396,106.375,219.05,105.996,218.978,106.126z"/>
					<path d="M219.754,106.662c0.187,0.15,0.375,0.276,0.53,0.289C220.177,106.878,219.944,106.726,219.754,106.662z"/>
					<polygon points="220.805,108.125 220.69,107.91 220.292,107.569 					"/>
					<path d="M212.38,101.61l-0.766-0.307c-0.16,0.103-0.028,0.309,0.264,0.41C212.105,101.714,212.397,101.817,212.38,101.61z"/>
					<path d="M213.711,104.062c-0.123-0.21-0.078-0.306-0.091-0.51l-0.359,0.507L213.711,104.062z"/>
					<path d="M211.647,102.942c-0.16,0.103-1.248-0.194-0.367,0.308C211.439,103.148,212.198,103.452,211.647,102.942z"/>
					<polygon points="201.443,96.358 201.631,96.442 202.052,95.514 					"/>
					<path d="M190.75,94.47c0.789,0.556,0.424-0.512,1.11,0.07c0.291-0.148-0.562-0.476-0.278-0.591
						C190.962,93.988,190.734,93.75,190.75,94.47z"/>
					<path d="M191.582,93.949c0.099-0.006,0.206-0.018,0.325-0.044C191.73,93.907,191.641,93.925,191.582,93.949z"/>
					<polygon points="74.016,100.067 73.438,99.836 73.798,100.19 					"/>
					<path d="M72.823,100.783l-0.091-0.652l-0.404,0.574C72.466,100.681,72.731,100.634,72.823,100.783z"/>
					<path d="M154.783,89.443l0.044-0.158c-0.095-0.166-0.235-0.172-0.517-0.188L154.783,89.443z"/>
					<polygon points="146.644,89.39 146.785,89.389 146.474,88.83 					"/>
					<path d="M139.962,90.92c0.277-0.018,0.581-0.197,0.86-0.215C140.24,90.902,139.782,90.208,139.962,90.92z"/>
				</g>
			</g>
		</g>
	</g>
</g>
<g>
	<g>
		<g>
			<g>
				<g>
					<path d="M285.059,98.384c0.285-0.161-0.061-0.428-0.066-0.516C284.608,98.259,285.135,98.463,285.059,98.384z"/>
					<polygon points="281.259,102.297 281.238,102.102 280.834,102.909 					"/>
					<path d="M277.087,105.122c0.793,0.329,1.455-1.111,2.344-1.399l0.215,0.052l0.012-0.698
						C278.804,103.756,277.837,104.86,277.087,105.122z"/>
					<path d="M274.018,105.317c0.286,0.142-0.351,0.521,0.563-0.272c-0.066,0.008-0.091,0.003-0.132,0.004
						C274.362,105.111,274.238,105.193,274.018,105.317z"/>
					<path d="M274.449,105.048C274.876,104.739,274.036,105.044,274.449,105.048L274.449,105.048z"/>
					<path d="M272.477,106.482l0.458-0.576c-0.212-0.062-0.756,0.232-0.624,0.01C271.778,106.407,271.989,106.468,272.477,106.482z"
						/>
					<path d="M272.194,107.271l0.251-0.279C272.354,106.967,272.261,106.998,272.194,107.271z"/>
					<path d="M272.977,106.401l-0.531,0.591c0.146,0.044,0.279,0.234,0.255-0.253C272.76,106.951,272.78,106.699,272.977,106.401z"
						/>
					<path d="M273.402,106.265c0.415-0.075,0.897-0.26,0.436,0.318C274.917,105.794,274.477,105.477,273.402,106.265z"/>
					<path d="M277.281,105.88l0.553-0.118l0.246-0.452C277.957,105.535,277.13,105.712,277.281,105.88z"/>
					<path d="M268.609,108.45c0.042,0.153,0.407,0.224,0.552,0.362l0.346-0.42C269.229,108.443,268.755,108.625,268.609,108.45z"/>
					<path d="M269.161,108.812l-0.52,0.628C269.243,109.107,269.284,108.932,269.161,108.812z"/>
					<polygon points="272.509,108.009 273.294,106.876 272.305,108.144 					"/>
					<polygon points="266.07,109.915 266.269,109.393 265.867,110.24 					"/>
					<path d="M264.419,110.943c0.134-0.414-0.626-0.207-0.421-0.532c-0.431,0.309-0.695,0.752-0.937,1.152
						C263.373,111.237,263.786,111.035,264.419,110.943z"/>
					<path d="M262.632,112.189c0.153-0.167,0.285-0.39,0.43-0.626C262.896,111.736,262.75,111.935,262.632,112.189z"/>
					<path d="M267.468,110.034c-0.099-0.049-0.32-0.198-0.744-0.07l0.479,0.217C267.283,110.136,267.374,110.085,267.468,110.034z"
						/>
					<path d="M267.218,110.187l-0.016-0.006c-0.291,0.154-0.492,0.261-0.579,0.308C266.698,110.45,266.878,110.359,267.218,110.187z
						"/>
					<path d="M267.534,109.997c-0.024,0.014-0.042,0.023-0.066,0.037C267.514,110.055,267.536,110.059,267.534,109.997z"/>
					<path d="M270.586,108.748c-0.26,0.442-0.932,1.162,0.036,0.989C270.747,109.315,270.194,109.415,270.586,108.748z"/>
					<path d="M268.133,110.268l0.76-0.327c-0.072-0.089-0.284-0.156-0.151-0.37L268.133,110.268z"/>
					<polygon points="267.854,110.586 268.133,110.268 267.852,110.389 					"/>
					<path d="M264.039,111.837c-0.213,0.339-0.54,0.546-0.903,0.792c0.446-0.162,0.888-0.365,1.285-0.597
						C264.41,111.883,264.465,111.572,264.039,111.837z"/>
					<path d="M265.603,111.068c-0.019,0.019-0.039,0.042-0.056,0.061C265.606,111.135,265.646,111.126,265.603,111.068z"/>
					<polygon points="259.354,114.686 259.452,114.721 259.431,114.648 					"/>
					<path d="M264.528,112.062c0.345-0.105,0.476-0.301,0.583-0.516c-0.206,0.169-0.434,0.333-0.69,0.486
						C264.425,112.099,264.44,112.137,264.528,112.062z"/>
					<path d="M261.676,112.937c0.204-0.01,0.424-0.042,0.649-0.086C262.102,112.818,261.679,112.808,261.676,112.937z"/>
					<path d="M265.385,111.085c0.012-0.015,0.021-0.029,0.036-0.043C265.275,111.021,265.311,111.053,265.385,111.085z"/>
					<path d="M265.385,111.085c-0.126,0.144-0.196,0.307-0.273,0.46c0.169-0.137,0.317-0.276,0.436-0.417
						C265.493,111.124,265.433,111.106,265.385,111.085z"/>
					<path d="M259.499,117.729c-0.131-0.38,0.516-1.148,1.427-1.16c0.557-0.64-0.525-1.535-1.474-1.849
						c0.061,0.164,0.137,0.304-0.466,0.897c0.352,0.056,1.824-0.416,1.393,0.227c-0.852,0.695-0.844,0.299-1.402,0.364
						c0.625,0.222-0.868,1.29-0.323,1.819l0.714-0.679C259.437,117.441,259.219,117.765,259.499,117.729z"/>
					<path d="M260.827,114.02l0.269-0.203c-0.366,0.121-0.682,0.112-1.269,0.079c-0.394,0.434-0.425,0.619-0.396,0.752l1.468-0.735
						L260.827,114.02z"/>
					<path d="M262.41,113.102c-0.019,0.5-0.636,1.044,0.022,1.217c0.849-0.495,0.43-0.643,0.853-1.086
						c-1.337,0.85,0.281-0.426-0.841-0.094c0.236-0.214,0.474-0.36,0.691-0.511c-0.271,0.099-0.546,0.167-0.811,0.222
						c0.018,0.002,0.03,0.004,0.045,0.006l0.006-0.005l0.002,0.007c0.086,0.014,0.121,0.032,0.039,0.042
						c-0.002,0.007-0.018,0.018-0.024,0.023c0.02,0.058,0.02,0.117,0.017,0.176c-0.445,0.141-0.118-0.063-0.017-0.176
						c-0.006-0.021-0.005-0.045-0.015-0.065l-0.008-0.002l-1.274,0.96C261.419,113.71,261.781,113.5,262.41,113.102z"/>
					<path d="M270.383,110.978c-0.062-0.007-0.076-0.034-0.096-0.059C270.228,111.018,270.213,111.07,270.383,110.978z"/>
					<path d="M269.691,111.1c0.068-0.111,0.061-0.311,0.403-0.471c0.344-0.062,0.104,0.178,0.192,0.29
						c0.134-0.217,0.514-0.683-0.197-0.487l-0.065,0.109c-0.615,0.22-1.61,0.155-1.541,0.052
						C268.843,110.833,269.127,110.987,269.691,111.1z"/>
					<path d="M266.058,112.234l-1.038,0.846l0.769-0.014l-0.142-0.177C266.342,112.588,266.063,112.431,266.058,112.234z"/>
					<polygon points="259.12,114.569 259.058,114.085 258.695,115.014 					"/>
					<polygon points="257.645,115.434 257.515,115.053 257.23,115.48 					"/>
					<path d="M169.728,157.467l-0.344,0.225C169.552,157.603,169.655,157.53,169.728,157.467z"/>
					<path d="M172.461,156.643l0.007-0.206C172.375,156.578,172.347,156.67,172.461,156.643z"/>
					<path d="M219.345,133.002c-0.666-0.125-1.471-0.414-1.237-0.029l0.326,0.334C218.771,133.085,219.07,133.015,219.345,133.002z"
						/>
					<path d="M193.483,146.443c0.066,0.019,0.136,0.038,0.204,0.058c0.07-0.19,0.135-0.369,0.194-0.532
						C193.761,146.113,193.626,146.274,193.483,146.443z"/>
					<path d="M193.807,148.255l-0.799,0.032C193.201,148.312,193.459,148.305,193.807,148.255z"/>
					<path d="M154.793,161.998l-0.347,0.54C155.147,162.363,154.788,162.223,154.793,161.998z"/>
					<path d="M241.979,123.326c-0.514,0.051-0.896,0.149-1.214,0.273C241.401,123.579,241.988,123.718,241.979,123.326z"/>
					<path d="M169.429,152.737c-0.203,0.146-0.273,0.26-0.237,0.35C169.402,152.944,169.509,152.824,169.429,152.737z"/>
					<path d="M239.488,124.191c0.096,0.003,0.182-0.012,0.275-0.016c0.294-0.216,0.595-0.419,1.001-0.577
						C240.294,123.612,239.797,123.716,239.488,124.191z"/>
					<path d="M98.694,168.112c-0.041-0.02-0.091-0.028-0.128-0.051C98.553,168.12,98.611,168.123,98.694,168.112z"/>
					<path d="M82.456,163.449c0.16-0.021,0.42-0.013,0.666-0.01C83.003,163.405,82.803,163.401,82.456,163.449z"/>
					<path d="M251.44,118.415C251.75,118.224,251.47,118.346,251.44,118.415L251.44,118.415z"/>
					<path d="M253.786,119.142c-0.047,0.079-0.071,0.161-0.034,0.254C253.731,119.289,253.746,119.207,253.786,119.142z"/>
					<path d="M237.271,128.134l-0.029,0.011C237.376,128.179,237.353,128.172,237.271,128.134z"/>
					<path d="M252.015,118.343c-0.146,0.014-0.306,0.046-0.471,0.096C251.625,118.435,251.77,118.408,252.015,118.343z"/>
					<path d="M251.856,118.193c0.119-0.042,0.213-0.076,0.302-0.107C252.166,118,252.109,117.978,251.856,118.193z"/>
					<path d="M250.999,118.663c0.185-0.095,0.364-0.168,0.545-0.224c-0.077,0.006-0.114-0.002-0.104-0.024
						C251.348,118.468,251.221,118.549,250.999,118.663z"/>
					<path d="M128.741,165.068c-0.026-0.011-0.055-0.017-0.084-0.031C128.309,165.26,128.469,165.212,128.741,165.068z"/>
					<path d="M212.241,140.785c0.015-0.01,0.019-0.024,0.031-0.035c-0.018,0.002-0.04,0.004-0.056,0.006L212.241,140.785z"/>
					<path d="M211.146,141.582c0.315-0.712,0.635-0.771,1.071-0.826l-0.876-0.994L211.146,141.582z"/>
					<path d="M163.227,159.589c0,0,0.253,0.039,0.505,0.077c0.25,0.025,0.499,0.05,0.499,0.05c-0.909,0.939-1.777,0.884-0.772,1.215
						c-0.215-1.275,3.449-1.196,3.199-2.521l0.668,0.091c-0.172,0.04-0.176,0.125-0.347,0.164c1.329,0.268,0.57-1.206,2.093-1.478
						c0.542-0.061,0.958,0.017,0.656,0.28l1.042-0.677c0.34-0.078,0.329,0.172-0.009,0.25l1.708-0.646l0,0.042
						c0.184-0.28,0.645-0.769,0.875-0.987c0.502,0.048-0.177,0.206-0.011,0.332l0.859-0.612c0.502,0.212-0.188,0.784-0.871,0.944
						c1.323,1.008,0.692-0.573,2.886-0.428l-0.857,0.447c0.833,0.547,1.458,0.06,2.648,0.191c-0.33-0.159-2.458-0.501-1.519-1.147
						c0.327,0.002,0.735-0.063,1.206-0.512c0.163,0.454,0.665,0.137,1.332-0.146l0.167,0.621c0.671-0.452,0.504-0.737,0.837-1.172
						c0.835-0.25,1.173,0.151,1.508,0.471c1.342-0.401-1.173-0.403,0.33-1.104c1.169-0.183,1.842-0.718,3-1.567
						c0.837-0.083,0.008,0.415,0.346,0.482l0.488-0.731c0.169-0.051,0.173,0.115,0.174,0.199c0.495-0.399-0.185-0.613,0.64-1.113
						c-0.022-0.744,2.206,0.264,3.008-0.897c0.34,0.064,0.018,0.412,0.194,0.61c1.307-1.068,1.163-0.829,2.105-1.985l1.195-0.046
						c-0.944-0.125-0.194-1.057,0.476-1.844c-0.358-0.101-0.667-0.191-0.859-0.216l1.225-0.887c0.205,0.028,0.152,0.288,0.033,0.628
						c0.072-0.087,0.14-0.172,0.189-0.245c0.576,0.014,0.467,0.46,0.257,0.936l-0.641-0.158c-0.185,0.499-0.332,1.027-0.118,1.344
						c0.06-0.105,0.205-0.235,0.378-0.347c-0.047,0.135-0.066,0.245-0.001,0.287c0.071,0.043,0.158-0.147,0.317-0.391l0.583,0.528
						l-0.034-0.293l1.944-0.332c0.991-1.198,1.695-2.625,3.604-3.732c-0.302,0.69,0.218,0.833,0.427,1.417
						c-0.802-0.379-1.457,0.903-2.554,1.211c0.572-0.161,0.565,0.161,0.466,0.313l1.638-1.32c0.151,0.485,0.541,0.188,1.107,0.18
						c-0.75-0.773,1.137-1.189,1.779-1.787c0.175,0.292,0.123,0.685-0.833,0.991c1.308,0.277,0.872-1.634,2.121-1.451
						c-0.224,0.1-0.365,0.103-0.39,0.297c0.416-0.493,1.8-0.802,1.606-0.407l-0.224,0.099c1.55-0.505,4.582-1.864,4.486-2.744
						c0.056,0.096,0.189,1.03,0.163,1.227l1.604-3.747c0.04,0.773,1.606,2.013,0.514,2.904c0.397-0.05,0.888-0.119,1.546-0.666
						c-0.284,0.003-1.01-0.729-0.7-0.927c1.225,0.378,0.801,0.143,2.194,0.323c-0.426,0.005-0.452-1.222,0.141-1.424
						c-0.025,0.195,0.477,1.027,0.31,1.224l1.016-1.632c-0.283,0.335,0.298,0.908,0.741,1.069c-0.233-0.142,1.254-0.494,1.596-0.755
						l-0.71,0.01c1.692-0.513,1.005-2.124,2.64-2.733c-0.105,0.295,0.064,1.52,0.939,1.312c0.158-0.685,0.603-3.251,1.851-4.255
						l0.4,0.189l0.945-0.802c-0.342,1.083-1.548,3.565-2.321,4.658c0.708-0.014,0.318,0.288,1.218-0.121
						c0.44,0.15-0.316,0.64-0.578,0.769l2.199-0.705c-0.354-0.582,1.362-1.302,1.063-1.784l-2.034,1.607
						c-0.351-0.581,0.596-2.318,2.141-2.836c0.486,0.086,0.18,1.222,0.298,1.416c0.105-0.295,1.254-1.004,1.455-0.911l-0.497,0.598
						c0.937-0.115,1.016-1.398,2.269-1.237c0.362-0.109,1.373,0.352,1.276-0.039c-0.867-0.462-1.908-2.598-1.762-3.288
						c0.141-0.004,2.097-0.102,2.642,0.076c0.808,0.308-0.284,1.682,0.404,1.949c-0.052-0.178,0.173-0.521,0.275-0.644
						c0.425-0.012,0.075,0.586,0.831,0.171c-0.14-0.682,1.627-0.636,0.144-0.688c0.693-0.508,0.873-0.23,1.763-0.655
						c-0.463-0.276,0.205-1.731,0.892-2.249c0.025,0.178,0.289,0.308,0.414,0.365c1.592-0.646,2.57-0.72,4.026-1.391
						c0.202,0.088,0.988-0.055,0.812,0.35c0.159-0.207,0.255-0.505,0.697-0.728c1.116,0.133-0.964,0.547-0.005,0.883
						c-0.108-0.386,0.935-1.034,1.47-1.555c-0.455-0.464-1.525,0.577-2.064,1.098c-0.354-0.766,0.391-2.084,1.739-3.138
						c1.114-0.746,0.753,0.252,0.911,0.047c2.328-0.914,1.281-2.246,3.406-2.588c0.972,0.126,0.5,0.947,0.832,1.216
						c-0.886,0.656-1.644,0.418-2.293,0.757l0.922-0.165c-0.232,0.312-0.825,0.75-1.246,0.781c0.828,0.135,3.836-1.758,5.769-2.2
						c0.23-0.307,0.67-0.75,0.325-0.814l-0.512,0.34c-0.692-0.137,0.759-1.047-0.021-0.884c0.591-0.645,1.186-1.488,2.316-1.792
						l0.471,0.448c-0.104-0.148-0.833,0.017-1.036,0.33c0.302-0.459,1.946-0.063,2.046-1.017l-0.91-0.011
						c0.587-0.647,1.184-1.684,2.174-1.974c-0.691-0.326-0.176,0.168-1.144-0.132c0.962,0.498-2.321,1.146-1.005,1.513
						c-1.033-0.395-1.298,0.273-2.472,0.086c0.117,0.167,0.478,0.189-0.322,0.488c-0.008,0.07-0.055,0.179-0.086,0.244
						c-0.026,0.005-0.035,0.007-0.058,0.013h0.052c-0.019,0.043-0.019,0.051,0.02-0.001c0.22-0.013,0.414,0.007,0.523,0.078
						c-0.165,0.609-1.379,1.212-1.689,1.62c-0.497,0.135,0.088-0.3-0.256-0.373l-0.457,0.621c-0.261-0.373-1.536-0.084-0.582-0.839
						l-0.972,0.449c-0.677,0.048-1.498,0.336-1.897,0.739c-0.495,0.132-0.932,1.005-0.688,0.496c0,0-0.348,0.246-0.695,0.492
						c-0.351,0.24-0.702,0.48-0.702,0.48l-0.062-0.095c-1.526,0.644-2.788,2.108-4.846,2.167c-0.457,0.341-0.931,0.697-1.837,0.961
						l-0.326-0.281c-0.6,0.415-2.125,0.519-2.242,1.014c-1.126-0.638-3.271,1.2-4.51,1.52l0.157,0.484
						c-0.811,0.316-1.52,0.778-2.431,1.391l0.236,0.386c-0.71,0.71-2.326,0.648-3.669,1.256c0.026-0.197,0.388-0.3,0.672-0.307
						c-2.016-0.254-3.142,2.116-4.9,2.05c-0.306,0.302-0.594,0.361-0.896,0.363c0.034-0.015,0.062-0.035,0.082-0.059
						c-0.04,0.011-0.096,0.033-0.153,0.057c-0.191-0.004-0.394-0.018-0.603-0.01c0.195,0.037,0.378,0.059,0.522,0.045
						c-0.281,0.125-0.69,0.354-1.07,0.632l-0.363-0.371c-0.032,0.019-0.059,0.033-0.093,0.053c-0.481,0.006-0.246,0.348,0.113,0.592
						c-0.183,0.161-0.341,0.329-0.448,0.499c-0.633-0.58-1.009,0.698-1.783,0.121c-0.131,0.492-2.009,1.155-1.913,2.033
						c-0.057-0.097-0.201-0.094,0.024-0.194c-0.509,0.103-1.017,0.206-1.35,0.601l-0.432-0.485l-0.72,1.183
						c-0.768-0.089-1.108-0.185-0.665-0.875c-1.228,1.284-1.114,0.75-2.12,1.937l-0.087-0.392c-0.451,0.201-0.98,0.99-1.38,0.799
						c-1.306-0.278-5.093,1.964-7.979,2.403c0.953,0.868-1.418,0.02-1.177,0.897c-0.258-0.191-0.683-0.185-0.351-0.581
						c-1.233,0.802-2.178,0.424-2.806,1.516c-0.259-0.191,0.13-0.493-0.068-0.587c-0.084,0.1-0.332,0.399-0.534,0.305
						c-0.198-0.094,0.106-0.295,0.271-0.495c-1.345,0.615-1.155,1.457-0.947,2.235c-0.836-0.059-1.16,0.135-1.456,0.826
						c-0.341-0.14-0.848-0.223-0.037-0.665c-0.491,0.166-3.055,0.872-2.863,1.453c-0.212-0.092-0.688,0.211-0.786,0.327
						c-1.091,0.374-1.207,0.356-2.241,0.813l0.332-0.014c-0.131,0.874-0.816,0.493-1.634,0.903l-0.004-0.082
						c-2.155,0.224-0.75,0.569-2.903,0.709l0.274,0.409c0.182,1.034-1.923,0.08-2.903,0.874l0.498,0.104
						c-0.494,0.565-2.185-0.671-2.834-0.562c-0.163-0.034,0.162-0.215,0.326-0.349c-1.799,0.033,0.002,0.671-1.143,1.263
						c-0.333-0.242,0.004-0.909-0.825-0.688c-0.493-0.135-2.023,1.781-3.347,1.513c0.327,0.172,0.654,0.343,0.148,0.706
						c-0.843,0.36-2.646-0.21-3.183,0.82c-0.132-0.034-0.194-0.087-0.217-0.147c-0.601,0.41-2.054,1.01-2.328,1.562
						c-1.078-1.398-3.915,2.063-4.316,0.589l-2.055,0.588l0.014-0.164c-1.353,0.227-1.729,0.695-2.105,1.165
						c-0.333-0.025-0.144-0.219-0.139-0.302c-2.018,0.176-2.188,0.284-3.642,1.424l-0.284-0.44
						c-0.379,0.389-2.978-0.072-4.753,0.958c0.007-0.06,0.026-0.163,0.162-0.269c-1.001,0.581-2.382,0.425-3.54,0.455
						c-1.162,0.015-2.117,0.148-2.347,1.107l-1.354,0.696c1.883-0.197-0.134,0.82,0.685,0.977c-0.715,0.237-1.992-0.193-1.108-0.447
						l0.158,0.063c0.162-0.985-2.369,0.088-2.428-0.552c-1.821,0.336-3.633,0.595-5.433,0.716c-1.805,0.085-3.579,0.155-5.301,0.341
						l0.487,0.679l-1.208,0.103c-0.336-0.132-0.491-0.518,0.369-0.59c-0.5-0.358-1.396,0.516-1.402,0.677
						c-1.713-0.093,0.557-0.925,0.039-0.881l-0.691,0.138l0.167,0.066c-0.531,0.364-0.547,0.686-1.583,0.772
						c-0.668-0.067-0.382-0.408-0.642-0.406c-0.003-0.052-0.092-0.065-0.395,0.026l-1.518,0.119l0.662,0.502
						c-0.644,0.364-1.43,0.141-0.667,0.708c-1.114-0.792-5.714,0.066-6.371-0.186c-0.916,0.479-1.854,0.531-3.014,0.554
						c0.295,0.102,0.508,0.739-0.498,0.723c0.287-1.36-1.865-0.465-2.718-1.377c0.75,0.593-2.825,0.337-1.657,1.172
						c-0.837-0.056-0.071-0.498-0.716-0.773c-1.963,0.628-4.381-0.265-6.826-0.042c-0.036,0.176,0.381,0.44-0.143,0.708
						l-1.307-0.865c-0.482,0.092-0.437,1.021-1.326,0.42c0.126,0.146,0.314,0.368-0.011,0.428c-1.205-0.201-2.419-0.251-3.642-0.236
						c-0.611,0.007-1.225,0.03-1.84,0.059l-1.849,0.009c-2.467-0.006-4.95-0.106-7.356-0.997c0.646,0.363,0.206,0.382-0.3,0.377
						c0.326,0.093-0.024,0.434,0.03,0.674l-2.017-0.733c-0.404,0.647-2.193-0.033-2.44,0.591l0.654-0.091
						c-0.903,0.716,1.124,1.7,0.954,2.652c1.008-0.813,2.512,1.347,4.159,0.189c0.344,0.208-0.313,0.298-0.131,0.526
						c0.419-0.396,0.91-0.464,1.811-0.248l-0.106,0.098c2.549-0.012,3.629,0.438,6.491,0.8l-0.206-0.477
						c0.615,0.067,0.743,0.206,1.029,0.324c0.713-0.719-1.728-0.031-1.074-0.828c0.805,0.97,4.334-0.029,4.888,1.063
						c0.949-0.005-0.28-0.546,0.668-0.55l0.252,0.294l0.237-0.385c0.62,0.056,0.938,0.423,0.964,0.674
						c-0.152-0.028-0.428,0.075-0.59,0.099c0.812,0.34,2.275-0.145,2.553-0.034l-0.914-0.173c1.292-0.152,2.729-0.141,4.155-0.17
						c1.426-0.024,2.841-0.085,4.075-0.493l-0.198-0.211c1.884-0.533,1.536,0.149,3.618-0.174l-0.074,0.059
						c0.406-0.249,0.958-0.396,1.531-0.407c-0.513,0.295,1.023,0.445,0.349,0.778c2.04-0.573,1.003-0.413,2.307-1.327l0.341,0.35
						c0.439-0.363,0.464-0.542,1.498-0.704c-0.83,0.372,0.709,0.521-0.216,1.002c2.259,0.654,3.185-0.987,4.292,0.062
						c0.453-0.57-0.033-0.656-0.563-0.635c-0.531,0.006-1.11,0.092-0.839-0.032c-0.5-0.309,0.762-0.798,1.451-0.803
						c0.694-0.06,1.306,1.166,3.062,0.938c-0.176,0.016-0.18,0.094-0.354,0.11c0.685,0.182,1.248-0.506,2.1-0.18
						c0.381-0.67,1.051-0.09,1.087-0.891l-1.584,0.374c0.89-0.315,1.631-1.337,3.18-1.069c-0.096,0.172-0.515,0.434-0.808,0.587
						c0.466,0.179,0.824-0.255,1.309-0.071c-0.031,0.802-1.931,0.404-2.838,1.121c0.511,0.276,1.782-0.791,1.393,0.12
						c0.574-1.168,1.75-0.071,2.832-1.039l-0.016,0.479c0.179-0.097,0.539-0.365,0.887-0.395l-0.546,0.685
						c0.894-0.636,1.922,0.232,2.809-0.162c-1.935,0.247-0.515-0.514-1.381-0.759c2.286-0.936,1.556,1.128,4.178,0.418
						c-0.35,0.131-1.393-0.039-0.864-0.357c0.519,0.006,1.213,0.066,1.563,0.256c1.743-0.414-0.347-0.434,0.354-0.856
						c0.69,0.464,0.825-0.387,1.559-0.708l0.087,0.475c2.052-0.055,0.357-1.086,2.218-1.041l-0.644,0.796l0.908-0.34l-0.097,0.575
						c0.951-0.585,1.286-0.538,2.315-0.568c-0.296-0.292-0.032-0.884,0.847-1.058c0.657,0.173-0.251,0.512,0.99,0.218
						c-0.223,0.347-0.463,0.774-1.094,0.438c-0.026,0.164-0.222,0.348-0.251,0.511c0.715,0.205,1.652-0.223,2.107-0.309
						c-0.179,0.014-0.394,0.026-0.514-0.021l1.686-0.984c0.323,0.126,0.126,0.31-0.071,0.489c0.358-0.117,0.568-0.381,1.101-0.519
						c-0.059,0.409,0.059,0.799-0.673,1.118c0,0,0.412-0.185,0.825-0.37c0.406-0.21,0.812-0.42,0.812-0.42
						c0.15,0.139,0.98,0.243,0.788,0.438c1.005-0.009,2.168-1.312,3.496-1.324c0.048-0.091,0.163-0.193,0.417-0.313
						c1.203-0.202,2.371,0.007,3.644-0.858l0.972,0.486c1.06-0.424-1.299-0.594,0.463-1.298c1.236-0.533,0.636,0.461,1.141,0.539
						c0.551-0.518,1.491-1.434,2.813-1.246C163.915,159.465,163.583,159.456,163.227,159.589z M176.451,155.176
						c-0.225,0.176-0.64,0.633-0.919,0.422C175.65,154.981,175.96,155.162,176.451,155.176z M195.714,146.513
						c-0.122,0.225-0.436,0.271-0.826,0.236C195.104,146.615,195.375,146.521,195.714,146.513z M248.034,120.512l-0.016,0.033
						C247.404,120.635,247.625,120.61,248.034,120.512z M249.232,120.163c0.082-0.114,0.045-0.171-0.032-0.208
						c-0.023,0.147-0.269,0.275-0.566,0.382C248.768,120.412,248.949,120.421,249.232,120.163z M124.497,162.306l0.25,0.097
						C124.226,162.604,124.363,162.462,124.497,162.306z"/>
					<path d="M193.776,148.042c-0.102-0.046-0.155-0.12-0.207-0.197C193.504,147.96,193.538,148.047,193.776,148.042z"/>
					<path d="M154.858,161.898l-0.042,0.005c-0.016,0.033-0.021,0.064-0.022,0.095L154.858,161.898z"/>
					<path d="M233.506,131.867c-0.263,0.038-0.429,0.013-0.553-0.034C232.987,131.947,233.134,131.993,233.506,131.867z"/>
					<path d="M254.682,116.511l-0.643,0.469c0.328-0.194,0.497-0.162,0.703-0.182C254.675,116.706,254.467,116.629,254.682,116.511z
						"/>
					<path d="M262.131,115.93c0.073-0.107,0.213-0.123,0.284-0.23l-0.136-0.181C261.853,115.767,261.636,116.09,262.131,115.93z"/>
					<path d="M256.067,117.602c0.242,0.332,0.62-0.017,1.078-0.335c-0.028,0.016-0.056,0.034-0.087,0.044
						C256.939,116.734,256.503,117.168,256.067,117.602z"/>
					<path d="M257.254,117.196c0.143-0.095,0.293-0.184,0.45-0.242C257.655,116.723,257.498,117.006,257.254,117.196z"/>
					<path d="M250.518,119.241c0.282-0.021-0.082-0.536,0.124-0.453C250.676,118.197,249.35,120.109,250.518,119.241z"/>
					<polygon points="257.084,118.583 256.675,118.23 256.584,118.73 					"/>
					<path d="M253.013,120.255l0.853-0.281c-0.051-0.069,0.027-0.164,0.134-0.261C253.505,119.948,252.928,120.132,253.013,120.255z
						"/>
					<path d="M253.999,119.713c0.258-0.121,0.494-0.254,0.598-0.399C254.462,119.389,254.175,119.555,253.999,119.713z"/>
					<polygon points="256.072,119.271 255.79,119.297 255.216,119.55 					"/>
					<path d="M244.386,124.315l-0.818,0.537c-0.017,0.197,0.267,0.182,0.565-0.032C244.293,124.614,244.591,124.403,244.386,124.315
						z"/>
					<path d="M247.625,124.308c-0.28,0.021-0.345-0.072-0.549-0.157l0.24,0.574L247.625,124.308z"/>
					<path d="M245.123,125.646c-0.015,0.197-1.072,1.041,0.03,0.488C245.171,125.937,245.994,125.399,245.123,125.646z"/>
					<polygon points="231.451,130.896 231.675,130.792 231.239,129.87 					"/>
					<path d="M220.511,138.137c1.157-0.212,0.013-0.685,1.091-0.799c0.157-0.325-0.881,0.094-0.704-0.204
						C220.353,137.633,219.961,137.639,220.511,138.137z"/>
					<path d="M220.897,137.134c0.088-0.079,0.178-0.169,0.269-0.278C221.004,136.991,220.936,137.072,220.897,137.134z"/>
					<polygon points="79.795,162.808 79.073,162.569 79.528,162.928 					"/>
					<path d="M78.346,163.512l-0.137-0.653l-0.474,0.57C77.904,163.406,78.229,163.361,78.346,163.512z"/>
					<path d="M178.843,155.744l0.001-0.167c-0.164-0.118-0.332-0.068-0.669,0.031L178.843,155.744z"/>
					<polygon points="169.014,158.354 169.185,158.314 168.703,157.85 					"/>
					<path d="M161.023,161.425c0.345-0.06,0.709-0.283,1.056-0.343C161.368,161.365,160.745,160.739,161.023,161.425z"/>
				</g>
			</g>
		</g>
	</g>
</g>
</svg>
